<svg width="671" height="560" viewBox="0 0 671 560" fill="none" xmlns="http://www.w3.org/2000/svg">
<g id="Frame 16">
<g id="Component 183">
<g id="Component 182">
<g id="Vector 903">
<path d="M99.4251 295.759L119.506 252.523L118.079 247.004L116.403 244.318L113.674 239.944L109.721 236.391L118.26 233.505C145.623 232.008 160.99 231.451 188.754 234.449C269.965 249.47 315.467 257.857 364.738 236.805L388.39 225.62L407.388 225.875L407.335 229.874L420.927 223.056L430.179 241.681L438.961 257.995L451.847 266.571L449.836 262.446L428.473 219.656L436.519 216.264L441.959 220.837L445.983 219.073C442.823 203.987 443.501 197.113 443.947 184.36L445.454 183.881L457.033 178.035C473.675 197.4 480.333 207.293 484.087 248.904C515.294 251.643 530.76 256.325 555.319 269.359L553.186 279.331C522.137 275.86 503.348 274.372 474.738 274.896L482.025 290.88L485.018 291.42L486.957 295.946L486.417 298.939L498.581 324.104C493.937 324.896 492.603 325.177 488.549 326.47L477.351 303.818L475.365 302.792L473.432 297.765L474.472 294.779L464.734 275.147L463.7 277.633C461.594 278.534 459.583 279.409 457.665 280.271L470.798 307.731L474.298 307.778L476.717 313.811L476.691 315.811L506.298 382.713C514.324 380.82 518.716 388.88 513.116 396.305L508.09 398.238C498.943 400.139 497.174 396.425 496.245 386.579L465.625 320.663L463.145 319.129L459.719 313.583L462.259 310.617L449.613 284.101C434.28 291.934 426.434 299.922 423.175 316.594L424.881 338.619L404.603 321.846C387.057 305.828 374.811 301.319 352.545 294.809L316.165 316.662C313.147 321.669 311.314 326.229 307.891 337.053C307.518 341.003 308.173 343.386 310.248 347.774C316.747 347.861 319.183 352.705 314.124 357.015L314.059 361.909L303.476 367.997L301.163 372.716L288.914 372.552L284.346 359.74C284.515 362.163 284.205 364.982 283.465 368.729C241.824 383.981 217.861 391.167 172.073 397.24C169.21 391.264 169.639 388.262 172.261 383.241L180.26 383.348L187.953 368.95C190.19 361.326 194.008 360.754 203.526 363.658L203.338 377.657L254.601 358.341L254.742 347.842L264.395 336.471L259.27 308.399L256.271 308.359C258.678 314.919 258.666 318.223 256.063 323.858L221.066 323.389L179.712 274.831L174.326 266.297C167.234 265.812 160.434 265.463 153.342 264.978C150.174 261.04 151.276 257.099 154.982 254.499L166.981 254.659C162.284 251.808 158.148 249.603 154.072 247.804C136.616 256.844 127.299 265.698 112.431 295.433L99.4251 295.759Z" fill="url(#paint0_linear_130_4641)"/>
<path d="M501.586 361.148L495.287 346.062C498.699 344.875 500.177 344.673 503.516 344.217L503.813 344.176L507.206 352.222L505.585 361.201C503.784 361.061 503.092 360.668 501.586 361.148Z" fill="url(#paint1_linear_130_4641)"/>
<path d="M119.506 252.523L99.4251 295.759L112.431 295.433C127.299 265.698 136.616 256.844 154.072 247.804M119.506 252.523L118.079 247.004L116.403 244.318M119.506 252.523L131.005 252.677C134.717 249.755 135.549 246.689 127.119 244.125M113.674 239.944L109.721 236.391L118.26 233.505C145.623 232.008 160.99 231.451 188.754 234.449M113.674 239.944C118.949 239.66 121.908 239.624 127.172 240.125M113.674 239.944L116.403 244.318M188.754 234.449C274.529 256.757 315.151 264.658 364.738 236.805M188.754 234.449C269.965 249.47 315.467 257.857 364.738 236.805M364.738 236.805L388.39 225.62L407.388 225.875L407.335 229.874L420.927 223.056L430.179 241.681M364.738 236.805L363.591 247.79M430.179 241.681L424.092 248.1L451.847 266.571M430.179 241.681L438.961 257.995M464.734 275.147L463.7 277.633M464.734 275.147L451.847 266.571M464.734 275.147C468.212 275.038 471.537 274.954 474.738 274.896M464.734 275.147L474.472 294.779L473.432 297.765L475.365 302.792L477.351 303.818M484.087 248.904C515.294 251.643 530.76 256.325 555.319 269.359L553.186 279.331C522.137 275.86 503.348 274.372 474.738 274.896M484.087 248.904C480.333 207.293 473.675 197.4 457.033 178.035L445.454 183.881M484.087 248.904L478.52 253.829M445.454 183.881C445.409 187.2 445.384 189.061 445.34 192.38C445.179 203.191 445.711 208.828 447.492 218.411M445.454 183.881L443.947 184.36C443.501 197.113 442.823 203.987 445.983 219.073M447.492 218.411C447.946 221.168 448.128 222.071 448.425 223.424L454.304 232.503L478.52 253.829M447.492 218.411L445.983 219.073M463.7 277.633L390.269 234.646L366.104 246.824L363.591 247.79M463.7 277.633C461.594 278.534 459.583 279.409 457.665 280.271M363.591 247.79L361.484 255.763M359.377 263.735L325.599 284.285M359.377 263.735L364.877 263.809M359.377 263.735L361.484 255.763M325.599 284.285L301.894 299.469M325.599 284.285L314.64 281.138M166.981 254.659L188.613 244.948L295.711 275.702M166.981 254.659C162.284 251.808 158.148 249.603 154.072 247.804M166.981 254.659L154.982 254.499C151.276 257.099 150.174 261.04 153.342 264.978C160.434 265.463 167.234 265.812 174.326 266.297M166.981 254.659L179.712 274.831L221.066 323.389L256.063 323.858C258.666 318.223 258.678 314.919 256.271 308.359M166.981 254.659L226.159 316.457L231.659 316.531L254.311 305.333L256.271 308.359M166.981 254.659L226.26 308.958C228.498 309.727 229.842 309.876 232.259 309.038L251.871 300.8C251.36 295.058 250.415 292.029 247.552 287.241L166.981 254.659ZM127.172 240.125C127.923 241.51 128.002 242.358 127.119 244.125M127.172 240.125C138.396 242.327 146.121 244.294 154.072 247.804M127.119 244.125C123.216 244.682 120.842 244.689 116.403 244.318M256.271 308.359L259.27 308.399L264.395 336.471L254.742 347.842L254.601 358.341M254.601 358.341L203.338 377.657L203.526 363.658C194.008 360.754 190.19 361.326 187.953 368.95L180.26 383.348L172.261 383.241C169.639 388.262 169.21 391.264 172.073 397.24C217.861 391.167 241.824 383.981 283.465 368.729C284.205 364.982 284.515 362.163 284.346 359.74M254.601 358.341L262.129 356.319M281.199 351.197L262.129 356.319M281.199 351.197C283.114 354.148 284.128 356.615 284.346 359.74M281.199 351.197L275.751 347.312M262.129 356.319L275.751 347.312M303.476 367.997L292.859 339.352L289.373 338.305L275.751 347.312M303.476 367.997L301.163 372.716L288.914 372.552L284.346 359.74M303.476 367.997L314.059 361.909L314.124 357.015C319.183 352.705 316.747 347.861 310.248 347.774C308.173 343.386 307.518 341.003 307.891 337.053C311.314 326.229 313.147 321.669 316.165 316.662C336.835 304.245 348.424 297.284 369.095 284.867M423.175 316.594L424.881 338.619L404.603 321.846C386.905 305.689 374.599 301.242 351.963 294.639M423.175 316.594C426.434 299.922 434.28 291.934 449.613 284.101M423.175 316.594C416.61 294.676 412.924 282.4 401.373 264.298L403.474 256.825C388.055 257.246 379.463 257.84 364.877 263.809M451.847 266.571L449.836 262.446M457.665 280.271L470.798 307.731L474.298 307.778L476.717 313.811L476.691 315.811M457.665 280.271C454.776 281.567 452.096 282.832 449.613 284.101M476.691 315.811L465.625 320.663M476.691 315.811L506.298 382.713C514.324 380.82 518.716 388.88 513.116 396.305L508.09 398.238C498.943 400.139 497.174 396.425 496.245 386.579L465.625 320.663M465.625 320.663L463.145 319.129L459.719 313.583L462.259 310.617L449.613 284.101M474.738 274.896L482.025 290.88L485.018 291.42L486.957 295.946L486.417 298.939M477.351 303.818L486.417 298.939M477.351 303.818L488.549 326.47C492.603 325.177 493.937 324.896 498.581 324.104L486.417 298.939M364.877 263.809L384.328 267.57L389.782 271.006M369.095 284.867L402.844 303.821L404.911 298.848L394.245 273.818L389.782 271.006M369.095 284.867L389.782 271.006M415.282 291.986C416.134 285.813 416.878 280.871 419.718 276.044C425.671 272.065 429.526 271.312 437.29 270.779C419.244 259.039 409.035 253.237 390.425 245.149C388.126 245.051 386.844 245.231 384.616 246.072L361.484 255.763M301.894 299.469C301.105 300.044 300.663 300.367 299.874 300.942L293.113 320.354C292.269 321.796 291.423 321.847 289.6 321.307L259.357 301.9L289.988 292.309M301.894 299.469C297.595 294.653 294.836 293.951 289.988 292.309M289.988 292.309L314.64 281.138M314.64 281.138L307.666 279.136M307.666 279.136L295.711 275.702M307.666 279.136L286.544 288.155L275.104 283.609L295.711 275.702M478.52 253.829C477.662 253.876 476.829 253.924 476.018 253.973M449.836 262.446L428.473 219.656L436.519 216.264L441.959 220.837L445.983 219.073M449.836 262.446C451.685 256.875 458.125 255.063 476.018 253.973M476.018 253.973L453.284 233.99L446.911 224.404L445.983 219.073M264.631 281.469L250.059 286.774L250.539 288.281L265.111 282.975L264.631 281.469ZM251.499 291.294L252.472 293.307L272.564 286.575L271.59 284.562L251.499 291.294ZM253.925 296.827L281.049 287.689L282.016 290.202L254.891 299.34L253.925 296.827ZM495.287 346.062L501.586 361.148C503.092 360.668 503.784 361.061 505.585 361.201L507.206 352.222L503.813 344.176C500.262 344.662 498.799 344.84 495.287 346.062Z" stroke="black"/>
</g>
<g id="Vector 906">
<path d="M309.467 371.58C306.421 375.037 301.948 372.981 302.502 368.986C303.056 364.991 308.788 357.254 315.195 354.655C317.741 354.162 318.683 354.301 320.194 354.722C320.894 355.087 321.554 355.442 322.18 355.788C322.295 354.387 322.376 353.04 322.452 351.75L322.465 351.525C322.622 348.838 322.765 346.405 323.158 344.259C319.482 342.673 316.819 340.22 315.423 337.568L308.924 334.567L316.165 316.663L333.81 305.898L335.323 307.918L345.822 308.059L345.792 310.292C346.784 308.916 347.502 307.412 348.355 305.593L352.354 305.646L350.294 310.119L352.288 310.646C352.773 309.124 353.162 308.407 354.328 307.673C355.245 305.783 355.949 305.242 357.367 304.713L363.347 306.293L363.374 304.293L359.874 304.247L359.934 299.747L365.434 299.821L365.447 298.821L367.94 299.354L367.913 301.354L367.853 305.854L366.853 305.84L366.833 307.34L373.306 309.427C373.813 310.61 373.916 311.257 373.266 312.427C373.666 313.931 373.716 314.735 372.719 315.92C379.133 317.637 382.953 319.881 385.245 324.588L386.637 322.106L385.674 319.36L385.178 319.087L387.971 309.123C392.571 311.873 395.131 313.704 399.664 317.28L402.163 320.314C416.711 340.005 409.787 352.936 388.401 377.135C382.184 380.512 379.518 379.474 376.482 370.977C380.589 356.848 383.025 349.104 387.95 336.125L387.793 335.123C378.13 359.804 369.232 369.086 353.944 373.673L324.949 373.285L318.886 377.706C314.04 378.603 313.035 376.889 312.967 371.627L309.467 371.58Z" fill="url(#paint2_linear_130_4641)"/>
<path d="M309.467 371.58C306.421 375.037 301.948 372.981 302.502 368.986C303.056 364.991 308.788 357.254 315.195 354.655C317.741 354.162 318.683 354.301 320.194 354.722C320.894 355.087 321.554 355.442 322.18 355.788M309.467 371.58L312.967 371.627M309.467 371.58C311.145 365.781 313.01 363.48 316.627 359.675C318.068 358.925 318.954 358.967 320.627 359.728L333.985 370.408C343.005 370.741 347.692 370.779 350.011 368.622L351.557 365.143L348.538 366.602C344.135 367.384 341.338 367.243 336.039 366.435C335.858 366.263 335.68 366.093 335.504 365.926M312.967 371.627L313.021 367.627M312.967 371.627L318.967 371.707M312.967 371.627C313.035 376.889 314.04 378.603 318.886 377.706L324.949 373.285M313.021 367.627L315.034 366.654L322.033 366.748M313.021 367.627L319.02 367.707M322.033 366.748L319.02 367.707M322.033 366.748C323.22 367.735 323.722 368.401 323.486 370.267M319.02 367.707L318.967 371.707M318.967 371.707L323.486 370.267M323.486 370.267L323.533 366.768L329.533 366.848M332.713 369.391L326.999 369.314L326.993 369.814L326.966 371.814L324.949 373.285M324.949 373.285L353.944 373.673C369.232 369.086 378.13 359.804 387.793 335.123M322.18 355.788C328.232 359.138 331.109 361.741 335.504 365.926M322.18 355.788C322.295 354.387 322.376 353.04 322.452 351.75M339.021 330.47L337.521 330.45L337.541 328.95L339.041 328.97L339.068 326.97M339.021 330.47L338.968 334.469C341.886 334.893 344.383 335.785 346.434 337.013M339.021 330.47L346.494 332.57M335.504 365.926C338.628 365.108 341.318 364.005 343.59 362.7M322.452 351.75L325.182 355.829L335.545 362.926L343.59 362.7M322.452 351.75C322.615 348.974 322.754 346.465 323.158 344.259M343.59 362.7C345.125 361.818 346.47 360.844 347.629 359.803M323.158 344.259C323.276 343.616 323.416 343 323.585 342.41M323.158 344.259C319.482 342.673 316.819 340.22 315.423 337.568M331.965 334.643C332.287 334.553 332.622 334.469 332.968 334.389L333.022 330.389L334.521 330.41L334.541 328.91L333.042 328.89L333.068 326.89M331.965 334.643C324.743 325.138 315.563 327.155 314.503 331.642C314.053 333.546 314.394 335.611 315.423 337.568M331.965 334.643C326.859 336.058 324.645 338.717 323.585 342.41M323.585 342.41L320.889 340.228M320.889 340.228L325.429 337.288L325.455 335.289L323.955 335.269L323.976 333.769L334.276 311.405L335.289 310.418L345.788 310.559L345.822 308.059L335.323 307.918M320.889 340.228C316.602 337.667 316.183 335.89 318.496 332.195L318.536 329.195C319.325 327.196 320.395 326.695 323.774 328.266L332.796 309.885L335.323 307.918M335.323 307.918L333.81 305.898L316.165 316.663L308.924 334.567L315.423 337.568M349.074 326.604L346.574 326.571L346.534 329.57M349.074 326.604L349.02 330.604L361.019 330.764C365.032 330.922 364.903 332.628 362.939 336.791L362.885 340.79M349.074 326.604L349.121 323.104M352.081 343.146L362.852 343.29L362.885 340.79M352.081 343.146C350.974 340.731 349.074 338.593 346.434 337.013M352.081 343.146C354.464 348.347 353.163 354.833 347.629 359.803M346.434 337.013L346.46 335.07L346.494 332.57M349.121 323.104L351.62 323.138M349.121 323.104C346.05 319.035 343.28 317.856 337.709 316.451C344.881 312.816 346.183 310.228 348.355 305.593L352.354 305.646L350.294 310.119L352.288 310.646M351.62 323.138L351.681 318.638M351.62 323.138L352.347 323.226M351.681 318.638L350.187 318.118C350.833 314.87 351.315 313.289 352.288 310.646M351.681 318.638L370.122 323.155M352.288 310.646C352.773 309.124 353.162 308.407 354.328 307.673M352.288 310.646L372.719 315.92M354.328 307.673C355.245 305.783 355.949 305.242 357.367 304.713L363.347 306.293L363.374 304.293L359.874 304.247L359.934 299.747L365.434 299.821L365.447 298.821L367.94 299.354L367.913 301.354L367.853 305.854L366.853 305.84L366.833 307.34L373.306 309.427C373.813 310.61 373.916 311.257 373.266 312.427M354.328 307.673L373.266 312.427M373.266 312.427C373.666 313.931 373.716 314.735 372.719 315.92M372.719 315.92C372.699 318.585 372.301 320.106 371.119 323.399M372.719 315.92C379.133 317.637 382.953 319.881 385.245 324.588M371.119 323.399L370.122 323.155M371.119 323.399C373.76 326.119 375.433 326.398 378.584 325.999M370.122 323.155L370.092 325.385L356.113 323.684M372.665 319.919C374.625 321.789 375.899 322.427 378.631 322.499M393.12 323.463L392.603 324.687L387.636 334.121M393.12 323.463L399.664 317.28M393.12 323.463L385.674 319.36M399.664 317.28L402.163 320.314C416.711 340.005 409.787 352.936 388.401 377.135C382.184 380.512 379.518 379.474 376.482 370.977C380.589 356.848 383.025 349.104 387.95 336.125L387.636 334.121M399.664 317.28C395.131 313.704 392.571 311.873 387.971 309.123L385.178 319.087L385.674 319.36M385.674 319.36L386.637 322.106L385.245 324.588M385.245 324.588L376.911 338.978L377.397 339.984L377.37 341.984L372.871 341.924M372.871 341.924L368.331 344.863L363.305 346.796M372.871 341.924C371.593 341.818 369.388 340.746 368.898 339.871C368.461 339.09 366.9 339.677 366.398 339.837C364.783 341.572 364.195 343.31 363.305 346.796M363.305 346.796L361.318 345.77C352.49 344.151 351.158 357.635 365.697 354.829L366.264 349.836L368.277 348.863L375.504 346.96M387.636 334.121L382.855 343.203L380.855 343.176L377.31 346.484L375.504 346.96M347.629 359.803C354.701 365.202 358.051 366.233 361.624 360.277L364.128 360.024L364.157 357.809L368.157 357.862L368.19 355.364L369.724 352.883L369.751 350.883L372.75 350.923L375.504 346.96M371.538 329.405L372.531 329.918L372.991 332.925L378.464 334.998C379.162 331.758 378.701 330.219 374.551 328.445L371.552 328.405L371.538 329.405ZM371.538 329.405L356.093 325.198L356.113 323.684M356.113 323.684L352.347 323.226M352.347 323.226L352.302 326.647L354.553 328.178L360.553 328.258L365.519 330.825C367.439 331.578 368.062 332.217 368.478 333.864L368.438 336.864C368.197 338.432 367.483 338.694 365.912 338.831L362.885 340.79M346.534 329.57L339.068 326.97M346.534 329.57L346.494 332.57M339.068 326.97L339.101 324.47L333.102 324.39L333.068 326.89M334.608 323.91L330.622 322.857L329.589 325.343L333.068 326.89" stroke="black"/>
</g>
<g id="Vector 908">
<path d="M417.127 217.571L414.714 211.038L421.254 208.126L417.334 202.073L414.881 198.539C413.315 203.521 403.802 204.394 402.356 200.372L399.843 201.338C396.823 202.8 391.404 196.727 394.943 193.772C395.028 193.75 395.112 193.731 395.195 193.713L400.963 192.353L403.51 188.886C409.419 184.784 413.458 189.75 414.572 195.286L417.441 194.073L427.174 195.455L427.961 192.714L431.94 194.267L431.92 195.769L434.255 197.732L440.628 195.635L440.333 192.88L443.347 191.854L443.672 204.928C444.063 209.825 444.51 212.837 445.985 218.891L441.959 220.838L436.519 216.264L432.706 211.781L426.18 213.694L426.173 214.192L418.005 217.243L417.127 217.571Z" fill="#B2B2BA"/>
<path d="M426.173 214.192L426.18 213.694L432.706 211.781M426.173 214.192C423.503 215.189 419.702 216.609 418.005 217.243M426.173 214.192L428.473 219.657M421.254 208.126L414.714 211.038L417.127 217.571C417.127 217.571 417.456 217.448 418.005 217.243M421.254 208.126L417.334 202.073L414.881 198.539M421.254 208.126L424.24 209.168L425.28 206.181L429.3 204.735L431.8 204.769L429.354 200.733L431.92 195.769M414.881 198.539C413.315 203.521 403.802 204.394 402.356 200.372M414.881 198.539C414.896 197.476 414.79 196.37 414.572 195.286M394.943 193.772C391.404 196.727 396.823 202.8 399.843 201.338M394.943 193.772L400.963 192.353L403.51 188.886C409.419 184.784 413.458 189.75 414.572 195.286M394.943 193.772C400.463 192.346 402.862 199.877 399.843 201.338M394.943 193.772L405.47 191.915L405.483 190.915C410.003 189.475 412.909 196.515 408.376 198.955L407.382 198.439L402.356 200.372M399.843 201.338L402.356 200.372M432.706 211.781L437.739 209.349L438.793 205.362L442.799 204.916M432.706 211.781L436.519 216.264L441.959 220.838L445.985 218.891C444.51 212.837 444.063 209.825 443.672 204.928M442.799 204.916L443.672 204.928M442.799 204.916L441.508 203.83M431.92 195.769L431.94 194.267L427.961 192.714L427.174 195.455M431.92 195.769L434.255 197.732M427.174 195.455L426.387 198.196L426.354 200.693L422.854 200.646L419.381 198.6L417.441 194.073M427.174 195.455L417.441 194.073M417.441 194.073L414.572 195.286M420.835 223.055L418.005 217.243M443.672 204.928L443.347 191.854L440.333 192.88L441.508 203.83M441.508 203.83L438.843 201.59L434.255 197.732M440.628 195.635L434.255 197.732" stroke="black"/>
</g>
<g id="Vector 909">
<path d="M430.375 189.679L414.555 194.865L413.116 190.346L430.428 185.679L437.874 189.779L443.387 188.853L443.347 191.852L437.821 193.779L430.375 189.679Z" fill="#C815D2"/>
<path d="M466.579 174.662L458.02 179.048L457.033 178.034L454.013 179.494L453.027 178.481L463.593 173.622C464.274 174.585 465.065 174.662 466.579 174.662Z" fill="#C815D2"/>
<path d="M430.375 189.679L414.555 194.865L413.116 190.346L430.428 185.679L437.874 189.779L443.387 188.853L443.347 191.852L437.821 193.779L430.375 189.679Z" stroke="black"/>
<path d="M466.579 174.662L458.02 179.048L457.033 178.034L454.013 179.494L453.027 178.481L463.593 173.622C464.274 174.585 465.065 174.662 466.579 174.662Z" stroke="black"/>
</g>
<g id="Vector 912">
<path d="M166.981 254.66L179.706 275.332L221.059 323.89L256.056 324.359C259.8 318.121 257.836 310.854 254.318 304.834L231.659 316.531L226.159 316.458L166.981 254.66Z" fill="url(#paint3_linear_130_4641)"/>
<path d="M424.874 339.12L404.597 322.347C400.041 318.189 391.012 311.452 386.903 308.609C384.909 307.423 382.515 306.336 380.477 305.332C372.26 301.283 363.437 298.489 351.956 295.14L369.095 284.868L402.844 303.822L404.904 299.349L394.239 274.319L389.776 271.507L384.321 268.071L364.87 264.31C379.457 258.34 388.049 257.747 403.467 257.326L401.367 264.799C412.917 282.901 416.604 295.177 423.169 317.095L424.874 339.12Z" fill="url(#paint4_linear_130_4641)"/>
<path d="M289.988 292.31C294.836 293.951 297.095 294.647 301.394 299.463L325.099 284.279L314.64 281.139L289.988 292.31Z" fill="url(#paint5_linear_130_4641)"/>
<path d="M166.981 254.66L179.706 275.332L221.059 323.89L256.056 324.359C259.8 318.121 257.836 310.854 254.318 304.834L231.659 316.531L226.159 316.458L166.981 254.66Z" stroke="black"/>
<path d="M424.874 339.12L404.597 322.347C400.041 318.189 391.012 311.452 386.903 308.609C384.909 307.423 382.515 306.336 380.477 305.332C372.26 301.283 363.437 298.489 351.956 295.14L369.095 284.868L402.844 303.822L404.904 299.349L394.239 274.319L389.776 271.507L384.321 268.071L364.87 264.31C379.457 258.34 388.049 257.747 403.467 257.326L401.367 264.799C412.917 282.901 416.604 295.177 423.169 317.095L424.874 339.12Z" stroke="black"/>
<path d="M289.988 292.31C294.836 293.951 297.095 294.647 301.394 299.463L325.099 284.279L314.64 281.139L289.988 292.31Z" stroke="black"/>
</g>
<g id="Vector 908_2">
<path d="M400.963 192.353L403.51 188.886C409.419 184.784 413.458 189.75 414.572 195.286C414.79 196.37 414.896 197.476 414.881 198.539C413.315 203.521 403.802 204.394 402.356 200.372L399.843 201.338C396.823 202.8 391.404 196.727 394.943 193.772C395.028 193.75 395.112 193.731 395.195 193.713L400.963 192.353Z" fill="#585858"/>
<path d="M394.943 193.772C391.404 196.727 396.823 202.8 399.843 201.338M394.943 193.772L400.963 192.353L403.51 188.886C409.419 184.784 413.458 189.75 414.572 195.286C414.79 196.37 414.896 197.476 414.881 198.539C413.315 203.521 403.802 204.394 402.356 200.372M394.943 193.772C400.463 192.346 402.862 199.877 399.843 201.338M394.943 193.772L405.47 191.915L405.483 190.915C410.003 189.475 412.909 196.515 408.376 198.955L407.382 198.439L402.356 200.372M399.843 201.338L402.356 200.372" stroke="black"/>
</g>
<path id="Vector 913" d="M419.218 276.037C416.715 281.33 415.955 284.697 415.017 290.982C409.31 279.415 406.834 273.151 401.873 264.304L403.467 257.324C387.418 257.408 379.128 258.566 365.376 263.815L359.377 263.735L361.484 255.762L384.616 246.071L390.629 245.151C409.483 253.717 419.682 259.136 436.79 270.772C429.288 270.927 425.389 271.846 419.218 276.037Z" fill="url(#paint6_linear_130_4641)" stroke="black"/>
<path id="Vector 912_2" d="M404.409 298.979L402.349 303.452L369.095 284.868L389.274 271.637L393.744 273.949L404.409 298.979Z" fill="url(#paint7_linear_130_4641)" stroke="black"/>
<path id="Vector 914" d="M251.871 300.799L254.318 304.832L231.659 316.53L226.159 316.456L175.374 262.771L225.273 307.944C227.869 309.707 229.378 310.128 232.259 309.037L251.871 300.799Z" fill="black" stroke="black"/>
<path id="Vector 912_3" d="M226.266 308.459L166.988 254.16L247.559 286.742C250.421 291.53 251.366 294.559 251.878 300.301L232.266 308.539C229.848 309.377 228.504 309.228 226.266 308.459Z" fill="white" stroke="black"/>
<path id="Vector 915" d="M305.668 279.017L286.549 287.762L275.11 283.109L295.209 275.877L305.668 279.017Z" fill="white" stroke="black"/>
<path id="Vector 916" d="M256.27 308.359L259.27 308.399L259.277 307.899L258.357 301.886L290.495 291.815L313.14 281.118L307.161 279.537L286.542 288.262L276.103 283.622L275.117 282.609L293.709 275.857L188.613 244.947L168.481 254.679L248.059 286.747L251.465 293.793L252.371 300.806L256.27 308.359Z" fill="black" stroke="black"/>
<g id="Vector 912_4">
<path d="M250.046 287.775L265.118 282.476L266.091 284.489L251.019 289.788L250.046 287.775Z" fill="#515151"/>
<path d="M252.465 293.808L251.492 291.795L271.584 285.063L272.557 287.076L252.465 293.808Z" fill="#515151"/>
<path d="M280.563 286.683L253.438 295.821L254.405 298.334L281.529 289.196L280.563 286.683Z" fill="#515151"/>
<path d="M250.046 287.775L265.118 282.476L266.091 284.489L251.019 289.788L250.046 287.775Z" stroke="black"/>
<path d="M252.465 293.808L251.492 291.795L271.584 285.063L272.557 287.076L252.465 293.808Z" stroke="black"/>
<path d="M280.563 286.683L253.438 295.821L254.405 298.334L281.529 289.196L280.563 286.683Z" stroke="black"/>
</g>
<path id="Vector 917" d="M265.145 280.475L247.552 287.24L167.988 254.172L171.008 252.712C209.946 261.868 231.411 267.298 265.145 280.475Z" fill="#141414" stroke="black"/>
</g>
<path id="Vector 941" d="M289.6 321.306L260.357 301.913L290.488 292.316C295.68 294.175 298.127 295.664 300.887 299.956L299.367 301.435L293.107 320.853C291.917 321.953 291.151 322.061 289.6 321.306Z" fill="#141414" stroke="black"/>
<g id="Vector 909_2">
<path d="M430.375 189.679L414.555 194.865L413.116 190.346L430.428 185.679L437.874 189.779L443.387 188.853L443.347 191.852L437.821 193.779L430.375 189.679Z" fill="#C815D2"/>
<path d="M466.579 174.662L458.02 179.048L457.033 178.034L454.013 179.494L453.027 178.481L463.593 173.622C464.274 174.585 465.065 174.662 466.579 174.662Z" fill="#C815D2"/>
<path d="M430.375 189.679L414.555 194.865L413.116 190.346L430.428 185.679L437.874 189.779L443.387 188.853L443.347 191.852L437.821 193.779L430.375 189.679Z" stroke="black"/>
<path d="M466.579 174.662L458.02 179.048L457.033 178.034L454.013 179.494L453.027 178.481L463.593 173.622C464.274 174.585 465.065 174.662 466.579 174.662Z" stroke="black"/>
</g>
<path id="Vector 930" d="M154.982 254.497L165.981 254.645L166.481 254.651L173.327 266.244L153.342 264.976C150.382 261.937 150.443 257.437 154.982 254.497Z" fill="#141414" stroke="black"/>
<path id="Vector 929" d="M104.072 284.819L102.572 284.798L113.912 259.448L115.912 259.475L104.072 284.819Z" fill="white" stroke="black"/>
<path id="Vector 924" d="M114.173 239.949L109.721 236.389C149.564 233.548 167.803 234.584 188.12 244.44L166.995 253.658C139.033 239.326 129.439 238.738 114.173 239.949Z" fill="black" stroke="black"/>
<path id="Vector 923" d="M110.227 235.897C145.305 233.478 164.592 232.615 188.62 244.447L188.754 234.448C159.604 231.78 144.607 232.193 118.26 233.504L110.227 235.897Z" fill="black" stroke="black"/>
<path id="Vector 922" d="M363.598 247.289L364.225 237.797C316.514 264.729 273.686 258.168 188.747 234.947L188.62 244.446L325.606 283.784L359.384 263.234L363.598 247.289Z" fill="#141414" stroke="black"/>
<g id="Vector 912_5">
<path d="M461.469 174.197C459.997 172.176 463.057 167.717 468.502 171.791C470.462 174.817 466.748 177.948 463.943 176.229L465.963 174.756L463.476 173.723L461.469 174.197Z" fill="#585858"/>
<path d="M463.476 173.723C464.496 172.237 467.476 173.777 465.963 174.756M463.476 173.723L465.963 174.756M463.476 173.723L461.469 174.197C459.997 172.176 463.057 167.717 468.502 171.791C470.462 174.817 466.748 177.948 463.943 176.229L465.963 174.756" stroke="black"/>
</g>
<path id="Vector 913_2" d="M469.537 169.234L467.024 170.199C468.511 171.219 469.435 171.869 468.977 173.726C470.827 172.442 471.49 172.106 472.017 170.762C471.016 169.39 470.478 169.108 469.537 169.234Z" fill="#585858" stroke="black"/>
<path id="Vector 918" d="M362.497 254.775L364.597 247.303L390.269 234.645L398.822 230.759L464.74 274.646L464.714 276.645C441.372 286.484 428.427 294.048 423.189 315.593L415.497 292.488C415.956 285.815 416.254 282.077 420.218 276.05C426.166 270.886 430.567 271.03 438.748 271.297L438.783 271.298C420.581 258.456 410.129 252.684 391.129 245.158C389.381 244.364 388.399 244.244 386.629 245.097L362.497 254.775Z" fill="url(#paint8_linear_130_4641)" stroke="black"/>
<g id="SMT">
<mask id="path-30-outside-1_130_4641" maskUnits="userSpaceOnUse" x="393.177" y="233.911" width="34.1207" height="24.2948" fill="black">
<rect fill="white" x="393.177" y="233.911" width="34.1207" height="24.2948"/>
<path d="M395.577 240.318C397.129 241.287 398.188 241.928 398.754 242.24C398.888 242.314 399.014 242.334 399.132 242.3C399.259 242.263 399.359 242.178 399.433 242.044L399.868 241.255L397.853 240.145C397.24 239.807 396.869 239.424 396.74 238.995C396.62 238.564 396.729 238.041 397.067 237.428L397.212 237.165C397.55 236.552 397.932 236.184 398.358 236.061C398.792 235.935 399.316 236.041 399.929 236.379L403.003 238.074L402.327 239.3L399.604 237.799C399.253 237.605 398.982 237.684 398.789 238.034L398.692 238.21C398.499 238.56 398.578 238.832 398.928 239.025L400.504 239.894C401.076 240.209 401.423 240.575 401.543 240.992C401.664 241.408 401.566 241.903 401.251 242.475L401.01 242.913C400.694 243.485 400.328 243.831 399.912 243.952C399.495 244.072 399.001 243.975 398.428 243.659C398.131 243.495 397.819 243.316 397.492 243.12L396.706 242.641C396.126 242.284 395.533 241.904 394.926 241.5L395.577 240.318ZM412.357 246.769L409.924 248.283L408.698 247.607L408.679 244.742L406.796 248.157L405.219 247.288L408.599 241.158L410.263 242.075L410.228 246.281L413.766 244.006L415.43 244.923L412.05 251.054L410.474 250.185L412.357 246.769ZM420.374 255.642L418.797 254.773L421.501 249.868L419.661 248.855L420.337 247.629L425.592 250.525L424.916 251.751L423.077 250.737L420.374 255.642Z"/>
</mask>
<path d="M395.577 240.318C397.129 241.287 398.188 241.928 398.754 242.24C398.888 242.314 399.014 242.334 399.132 242.3C399.259 242.263 399.359 242.178 399.433 242.044L399.868 241.255L397.853 240.145C397.24 239.807 396.869 239.424 396.74 238.995C396.62 238.564 396.729 238.041 397.067 237.428L397.212 237.165C397.55 236.552 397.932 236.184 398.358 236.061C398.792 235.935 399.316 236.041 399.929 236.379L403.003 238.074L402.327 239.3L399.604 237.799C399.253 237.605 398.982 237.684 398.789 238.034L398.692 238.21C398.499 238.56 398.578 238.832 398.928 239.025L400.504 239.894C401.076 240.209 401.423 240.575 401.543 240.992C401.664 241.408 401.566 241.903 401.251 242.475L401.01 242.913C400.694 243.485 400.328 243.831 399.912 243.952C399.495 244.072 399.001 243.975 398.428 243.659C398.131 243.495 397.819 243.316 397.492 243.12L396.706 242.641C396.126 242.284 395.533 241.904 394.926 241.5L395.577 240.318ZM412.357 246.769L409.924 248.283L408.698 247.607L408.679 244.742L406.796 248.157L405.219 247.288L408.599 241.158L410.263 242.075L410.228 246.281L413.766 244.006L415.43 244.923L412.05 251.054L410.474 250.185L412.357 246.769ZM420.374 255.642L418.797 254.773L421.501 249.868L419.661 248.855L420.337 247.629L425.592 250.525L424.916 251.751L423.077 250.737L420.374 255.642Z" fill="url(#paint9_linear_130_4641)"/>
<path d="M395.577 240.318L395.842 239.894L395.394 239.614L395.139 240.077L395.577 240.318ZM399.132 242.3L398.993 241.82L398.993 241.82L399.132 242.3ZM399.868 241.255L400.306 241.497L400.547 241.059L400.109 240.818L399.868 241.255ZM396.74 238.995L396.259 239.129L396.262 239.139L396.74 238.995ZM398.358 236.061L398.496 236.541L398.496 236.541L398.358 236.061ZM403.003 238.074L403.441 238.315L403.682 237.877L403.244 237.636L403.003 238.074ZM402.327 239.3L402.086 239.738L402.524 239.979L402.765 239.541L402.327 239.3ZM399.912 243.952L399.773 243.471L399.912 243.952ZM397.492 243.12L397.232 243.547L397.236 243.55L397.492 243.12ZM396.706 242.641L396.443 243.067L396.446 243.068L396.706 242.641ZM394.926 241.5L394.488 241.259L394.265 241.662L394.649 241.917L394.926 241.5ZM395.312 240.742C396.862 241.71 397.932 242.358 398.513 242.678L398.995 241.802C398.443 241.498 397.395 240.864 395.842 239.894L395.312 240.742ZM398.513 242.678C398.732 242.799 398.996 242.86 399.271 242.78L398.993 241.82C398.999 241.818 399.006 241.817 399.013 241.816C399.02 241.816 399.025 241.816 399.027 241.817C399.032 241.818 399.022 241.817 398.995 241.802L398.513 242.678ZM399.271 242.78C399.546 242.701 399.744 242.515 399.871 242.285L398.995 241.802C398.983 241.825 398.976 241.83 398.978 241.828C398.979 241.827 398.982 241.825 398.985 241.823C398.989 241.821 398.992 241.82 398.993 241.82L399.271 242.78ZM399.871 242.285L400.306 241.497L399.43 241.014L398.995 241.802L399.871 242.285ZM400.109 240.818L398.095 239.707L397.612 240.583L399.626 241.693L400.109 240.818ZM398.095 239.707C397.534 239.398 397.294 239.1 397.219 238.851L396.262 239.139C396.445 239.748 396.947 240.216 397.612 240.583L398.095 239.707ZM397.222 238.861C397.153 238.611 397.196 238.231 397.505 237.67L396.629 237.187C396.263 237.852 396.088 238.516 396.259 239.129L397.222 238.861ZM397.505 237.67L397.65 237.407L396.774 236.924L396.629 237.187L397.505 237.67ZM397.65 237.407C397.96 236.845 398.255 236.611 398.496 236.541L398.219 235.581C397.608 235.757 397.14 236.26 396.774 236.924L397.65 237.407ZM398.496 236.541C398.749 236.468 399.129 236.509 399.688 236.817L400.171 235.942C399.503 235.574 398.836 235.402 398.219 235.581L398.496 236.541ZM399.688 236.817L402.762 238.512L403.244 237.636L400.171 235.942L399.688 236.817ZM402.565 237.832L401.889 239.058L402.765 239.541L403.441 238.315L402.565 237.832ZM402.569 238.862L399.845 237.361L399.362 238.236L402.086 239.738L402.569 238.862ZM399.845 237.361C399.602 237.227 399.306 237.143 398.998 237.232C398.69 237.322 398.484 237.55 398.351 237.793L399.226 238.276C399.286 238.168 399.313 238.182 399.276 238.193C399.24 238.204 399.255 238.177 399.362 238.236L399.845 237.361ZM398.351 237.793L398.254 237.968L399.13 238.451L399.226 238.276L398.351 237.793ZM398.254 237.968C398.12 238.211 398.037 238.507 398.126 238.815C398.215 239.123 398.444 239.329 398.686 239.463L399.169 238.587C399.062 238.527 399.076 238.501 399.086 238.537C399.097 238.574 399.071 238.559 399.13 238.451L398.254 237.968ZM398.686 239.463L400.263 240.331L400.746 239.456L399.169 238.587L398.686 239.463ZM400.263 240.331C400.777 240.615 400.994 240.893 401.063 241.131L402.024 240.853C401.851 240.257 401.376 239.803 400.746 239.456L400.263 240.331ZM401.063 241.131C401.132 241.368 401.096 241.719 400.813 242.233L401.689 242.716C402.036 242.086 402.196 241.449 402.024 240.853L401.063 241.131ZM400.813 242.233L400.572 242.671L401.447 243.154L401.689 242.716L400.813 242.233ZM400.572 242.671C400.288 243.185 400.01 243.403 399.773 243.471L400.051 244.432C400.647 244.26 401.1 243.784 401.447 243.154L400.572 242.671ZM399.773 243.471C399.535 243.54 399.184 243.505 398.67 243.221L398.187 244.097C398.817 244.445 399.455 244.604 400.051 244.432L399.773 243.471ZM398.67 243.221C398.378 243.06 398.071 242.884 397.749 242.691L397.236 243.55C397.567 243.747 397.884 243.93 398.187 244.097L398.67 243.221ZM397.752 242.694L396.966 242.214L396.446 243.068L397.232 243.547L397.752 242.694ZM396.968 242.216C396.394 241.861 395.805 241.484 395.202 241.084L394.649 241.917C395.261 242.323 395.859 242.706 396.443 243.067L396.968 242.216ZM395.363 241.742L396.015 240.559L395.139 240.077L394.488 241.259L395.363 241.742ZM412.357 246.769L412.795 247.011L413.72 245.333L412.093 246.345L412.357 246.769ZM409.924 248.283L409.682 248.721L409.939 248.862L410.188 248.707L409.924 248.283ZM408.698 247.607L408.198 247.61L408.2 247.904L408.456 248.045L408.698 247.607ZM408.678 244.742L409.178 244.739L409.166 242.822L408.241 244.501L408.678 244.742ZM406.796 248.157L406.554 248.595L406.992 248.837L407.234 248.399L406.796 248.157ZM405.219 247.288L404.782 247.047L404.54 247.485L404.978 247.726L405.219 247.288ZM408.599 241.158L408.84 240.72L408.402 240.479L408.161 240.917L408.599 241.158ZM410.263 242.075L410.763 242.079L410.765 241.781L410.504 241.637L410.263 242.075ZM410.228 246.281L409.728 246.277L409.72 247.202L410.498 246.702L410.228 246.281ZM413.766 244.006L414.007 243.568L413.746 243.424L413.495 243.586L413.766 244.006ZM415.43 244.923L415.867 245.165L416.109 244.727L415.671 244.486L415.43 244.923ZM412.05 251.054L411.809 251.492L412.247 251.733L412.488 251.295L412.05 251.054ZM410.474 250.185L410.036 249.943L409.795 250.381L410.233 250.623L410.474 250.185ZM412.093 246.345L409.66 247.858L410.188 248.707L412.621 247.194L412.093 246.345ZM410.165 247.845L408.939 247.169L408.456 248.045L409.682 248.721L410.165 247.845ZM409.198 247.604L409.178 244.739L408.179 244.745L408.198 247.61L409.198 247.604ZM408.241 244.501L406.358 247.916L407.234 248.399L409.116 244.983L408.241 244.501ZM407.037 247.719L405.461 246.851L404.978 247.726L406.554 248.595L407.037 247.719ZM405.657 247.53L409.036 241.399L408.161 240.917L404.782 247.047L405.657 247.53ZM408.357 241.596L410.021 242.513L410.504 241.637L408.84 240.72L408.357 241.596ZM409.763 242.071L409.728 246.277L410.728 246.285L410.763 242.079L409.763 242.071ZM410.498 246.702L414.036 244.427L413.495 243.586L409.958 245.861L410.498 246.702ZM413.524 244.444L415.188 245.361L415.671 244.486L414.007 243.568L413.524 244.444ZM414.992 244.682L411.613 250.812L412.488 251.295L415.867 245.165L414.992 244.682ZM412.292 250.616L410.715 249.747L410.233 250.623L411.809 251.492L412.292 250.616ZM410.912 250.426L412.795 247.011L411.919 246.528L410.036 249.943L410.912 250.426ZM420.374 255.642L420.132 256.079L420.57 256.321L420.812 255.883L420.374 255.642ZM418.797 254.773L418.359 254.531L418.118 254.969L418.556 255.211L418.797 254.773ZM421.501 249.868L421.938 250.11L422.18 249.672L421.742 249.431L421.501 249.868ZM419.661 248.855L419.224 248.613L418.982 249.051L419.42 249.293L419.661 248.855ZM420.337 247.629L420.579 247.191L420.141 246.949L419.899 247.387L420.337 247.629ZM425.592 250.525L426.03 250.766L426.271 250.328L425.833 250.087L425.592 250.525ZM424.916 251.751L424.675 252.189L425.113 252.43L425.354 251.992L424.916 251.751ZM423.077 250.737L423.318 250.299L422.88 250.058L422.639 250.496L423.077 250.737ZM420.615 255.204L419.039 254.335L418.556 255.211L420.132 256.079L420.615 255.204ZM419.235 255.014L421.938 250.11L421.063 249.627L418.359 254.531L419.235 255.014ZM421.742 249.431L419.903 248.417L419.42 249.293L421.259 250.306L421.742 249.431ZM420.099 249.096L420.775 247.87L419.899 247.387L419.224 248.613L420.099 249.096ZM420.096 248.066L425.351 250.963L425.833 250.087L420.579 247.191L420.096 248.066ZM425.154 250.284L424.478 251.51L425.354 251.992L426.03 250.766L425.154 250.284ZM425.157 251.313L423.318 250.299L422.836 251.175L424.675 252.189L425.157 251.313ZM422.639 250.496L419.936 255.4L420.812 255.883L423.515 250.979L422.639 250.496Z" fill="url(#paint10_linear_130_4641)" mask="url(#path-30-outside-1_130_4641)"/>
</g>
<path id="Vector 919" d="M390.269 234.646L462.2 277.613" stroke="url(#paint11_linear_130_4641)"/>
<path id="Vector 931" d="M390.269 234.646L462.2 277.613" stroke="url(#paint12_linear_130_4641)"/>
<g id="Vector 920">
<path d="M281.943 333.706C281.97 331.705 281.283 330.852 278.967 331.166C272.919 335.765 270.303 338.672 264.791 344.977C264.689 346.583 265.098 346.775 266.271 346.497C272.701 342.096 281.916 335.706 281.943 333.706Z" fill="white"/>
<path d="M270.162 316.545C268.547 316.602 267.731 316.748 267.142 318.005C267.735 322.936 268.396 325.868 269.468 331.039C273.336 328.328 275.36 326.707 278.074 323.152C275.421 320.107 273.607 318.747 270.162 316.545Z" fill="white"/>
<path d="M281.943 333.706C281.97 331.705 281.283 330.852 278.967 331.166C272.919 335.765 270.303 338.672 264.791 344.977C264.689 346.583 265.098 346.775 266.271 346.497C272.701 342.096 281.916 335.706 281.943 333.706Z" stroke="black"/>
<path d="M270.162 316.545C268.547 316.602 267.731 316.748 267.142 318.005C267.735 322.936 268.396 325.868 269.468 331.039C273.336 328.328 275.36 326.707 278.074 323.152C275.421 320.107 273.607 318.747 270.162 316.545Z" stroke="black"/>
</g>
<path id="Vector 921" d="M188.754 234.447C279.054 258.093 321.407 262.715 364.238 236.797C321.826 255.506 279.312 251.913 188.754 234.447Z" fill="black" stroke="black"/>
<path id="Vector 925" d="M127.119 244.124C122.692 244.612 120.746 244.529 117.113 244.49L118.351 246.851C118.743 247.985 119.221 249.616 120.006 252.529L131.005 252.676C134.599 248.944 135.216 246.501 127.119 244.124Z" fill="#D80000" stroke="black"/>
<path id="Vector 926" d="M117.113 244.49L114.667 240.457C119.558 239.97 122.29 239.946 127.166 240.625C127.844 241.91 127.805 242.618 127.119 244.124C123.317 244.458 121.098 244.49 117.113 244.49Z" fill="#D46504" stroke="black"/>
<path id="Vector 927" d="M112.431 295.432L99.925 295.765L119.506 252.523L130.998 253.177C135.352 248.896 134.897 246.859 128.119 244.137L128.166 240.638C139.204 242.324 145.08 243.589 153.57 247.978C134.927 257.57 126.021 268.326 112.431 295.432Z" fill="black" stroke="black"/>
<path id="Vector 928" d="M119.932 258.029L103.465 292.811L112.464 292.932L129.931 258.162L119.932 258.029Z" fill="#141414" stroke="black"/>
<g id="GILERA">
<mask id="path-40-outside-2_130_4641" maskUnits="userSpaceOnUse" x="399.021" y="311.697" width="26.2068" height="23.0582" fill="black">
<rect fill="white" x="399.021" y="311.697" width="26.2068" height="23.0582"/>
<path d="M403.544 318.64C402.757 318.122 402.061 317.614 401.456 317.116C401.153 316.867 400.989 316.613 400.964 316.354C400.939 316.095 401.051 315.814 401.3 315.512L402.52 314.029C402.786 313.705 403.052 313.53 403.317 313.504C403.587 313.478 403.884 313.598 404.209 313.865L405.877 315.237L405.343 315.886L403.86 314.666C403.675 314.513 403.506 314.53 403.354 314.715L402.134 316.198C402.075 316.269 402.048 316.343 402.053 316.419C402.063 316.495 402.104 316.562 402.175 316.62C402.53 316.912 402.861 317.171 403.167 317.397L403.72 316.726L403.117 316.23L403.575 315.674L405.011 316.856L403.544 318.64ZM406.082 320.845L404.414 319.472L404.948 318.824L405.365 319.167L406.966 317.221L406.549 316.878L407.082 316.229L408.75 317.601L408.217 318.25L407.8 317.907L406.199 319.853L406.616 320.196L406.082 320.845ZM408.469 321.72L410.16 323.112L409.626 323.761L407.101 321.683L409.769 318.44L410.603 319.126L408.469 321.72ZM413.125 326.639L410.554 324.524L413.222 321.28L415.794 323.396L415.26 324.045L413.523 322.615L413.008 323.241L414.375 324.365L413.841 325.014L412.474 323.889L411.922 324.561L413.659 325.991L413.125 326.639ZM416.766 324.196L418.712 325.797C419.036 326.064 419.21 326.331 419.233 326.599C419.262 326.866 419.143 327.162 418.876 327.486L418.533 327.903C418.322 328.159 418.115 328.323 417.912 328.394C417.711 328.467 417.499 328.451 417.276 328.345L417.016 329.841L416.113 329.097L416.381 327.686L415.732 327.152L414.931 328.125L414.097 327.439L416.766 324.196ZM418.042 326.8C418.195 326.614 418.178 326.445 417.993 326.293L417.066 325.531L416.266 326.504L417.192 327.266C417.378 327.418 417.547 327.402 417.699 327.217L418.042 326.8ZM418.614 331.155L417.71 330.411L421.606 328.178L422.533 328.941L421.093 333.194L420.189 332.451L420.457 331.7L419.299 330.747L418.614 331.155ZM420.003 330.316L420.744 330.926L421.269 329.532L420.003 330.316Z"/>
</mask>
<path d="M403.544 318.64C402.757 318.122 402.061 317.614 401.456 317.116C401.153 316.867 400.989 316.613 400.964 316.354C400.939 316.095 401.051 315.814 401.3 315.512L402.52 314.029C402.786 313.705 403.052 313.53 403.317 313.504C403.587 313.478 403.884 313.598 404.209 313.865L405.877 315.237L405.343 315.886L403.86 314.666C403.675 314.513 403.506 314.53 403.354 314.715L402.134 316.198C402.075 316.269 402.048 316.343 402.053 316.419C402.063 316.495 402.104 316.562 402.175 316.62C402.53 316.912 402.861 317.171 403.167 317.397L403.72 316.726L403.117 316.23L403.575 315.674L405.011 316.856L403.544 318.64ZM406.082 320.845L404.414 319.472L404.948 318.824L405.365 319.167L406.966 317.221L406.549 316.878L407.082 316.229L408.75 317.601L408.217 318.25L407.8 317.907L406.199 319.853L406.616 320.196L406.082 320.845ZM408.469 321.72L410.16 323.112L409.626 323.761L407.101 321.683L409.769 318.44L410.603 319.126L408.469 321.72ZM413.125 326.639L410.554 324.524L413.222 321.28L415.794 323.396L415.26 324.045L413.523 322.615L413.008 323.241L414.375 324.365L413.841 325.014L412.474 323.889L411.922 324.561L413.659 325.991L413.125 326.639ZM416.766 324.196L418.712 325.797C419.036 326.064 419.21 326.331 419.233 326.599C419.262 326.866 419.143 327.162 418.876 327.486L418.533 327.903C418.322 328.159 418.115 328.323 417.912 328.394C417.711 328.467 417.499 328.451 417.276 328.345L417.016 329.841L416.113 329.097L416.381 327.686L415.732 327.152L414.931 328.125L414.097 327.439L416.766 324.196ZM418.042 326.8C418.195 326.614 418.178 326.445 417.993 326.293L417.066 325.531L416.266 326.504L417.192 327.266C417.378 327.418 417.547 327.402 417.699 327.217L418.042 326.8ZM418.614 331.155L417.71 330.411L421.606 328.178L422.533 328.941L421.093 333.194L420.189 332.451L420.457 331.7L419.299 330.747L418.614 331.155ZM420.003 330.316L420.744 330.926L421.269 329.532L420.003 330.316Z" fill="url(#paint13_linear_130_4641)"/>
<path d="M403.544 318.64L403.269 319.057L403.644 319.304L403.93 318.957L403.544 318.64ZM400.964 316.354L401.462 316.306L401.462 316.306L400.964 316.354ZM403.317 313.504L403.365 314.002L403.365 314.002L403.317 313.504ZM405.877 315.237L406.263 315.555L406.581 315.169L406.194 314.851L405.877 315.237ZM405.343 315.886L405.025 316.272L405.412 316.589L405.729 316.203L405.343 315.886ZM402.053 316.419L401.554 316.449L401.555 316.467L401.557 316.486L402.053 316.419ZM403.167 317.397L402.87 317.8L403.252 318.081L403.553 317.715L403.167 317.397ZM403.72 316.726L404.106 317.043L404.423 316.657L404.037 316.34L403.72 316.726ZM403.117 316.23L402.731 315.912L402.414 316.299L402.8 316.616L403.117 316.23ZM403.575 315.674L403.892 315.288L403.506 314.97L403.189 315.356L403.575 315.674ZM405.011 316.856L405.397 317.173L405.715 316.787L405.329 316.47L405.011 316.856ZM403.818 318.222C403.044 317.712 402.363 317.215 401.774 316.73L401.138 317.502C401.76 318.014 402.47 318.532 403.269 319.057L403.818 318.222ZM401.774 316.73C401.522 316.523 401.469 316.379 401.462 316.306L400.466 316.403C400.51 316.847 400.784 317.211 401.138 317.502L401.774 316.73ZM401.462 316.306C401.455 316.233 401.479 316.081 401.686 315.829L400.914 315.194C400.622 315.548 400.423 315.958 400.466 316.403L401.462 316.306ZM401.686 315.829L402.906 314.347L402.134 313.711L400.914 315.194L401.686 315.829ZM402.906 314.347C403.136 314.067 403.292 314.009 403.365 314.002L403.268 313.006C402.813 313.051 402.437 313.342 402.134 313.711L402.906 314.347ZM403.365 314.002C403.447 313.994 403.614 314.023 403.891 314.251L404.526 313.479C404.154 313.172 403.727 312.962 403.268 313.006L403.365 314.002ZM403.891 314.251L405.559 315.623L406.194 314.851L404.526 313.479L403.891 314.251ZM405.491 314.919L404.957 315.568L405.729 316.203L406.263 315.555L405.491 314.919ZM405.661 315.5L404.178 314.28L403.543 315.052L405.025 316.272L405.661 315.5ZM404.178 314.28C404.026 314.155 403.809 314.041 403.546 314.066C403.283 314.092 403.093 314.245 402.968 314.397L403.74 315.033C403.767 315 403.737 315.052 403.643 315.061C403.549 315.071 403.51 315.025 403.543 315.052L404.178 314.28ZM402.968 314.397L401.748 315.88L402.52 316.516L403.74 315.033L402.968 314.397ZM401.748 315.88C401.626 316.028 401.54 316.222 401.554 316.449L402.552 316.389C402.554 316.421 402.549 316.452 402.539 316.478C402.53 316.503 402.52 316.515 402.52 316.516L401.748 315.88ZM401.557 316.486C401.588 316.711 401.71 316.885 401.857 317.006L402.493 316.234C402.493 316.235 402.505 316.245 402.519 316.267C402.533 316.291 402.544 316.32 402.549 316.352L401.557 316.486ZM401.857 317.006C402.218 317.303 402.556 317.568 402.87 317.8L403.464 316.995C403.166 316.775 402.842 316.522 402.493 316.234L401.857 317.006ZM403.553 317.715L404.106 317.043L403.334 316.408L402.781 317.08L403.553 317.715ZM404.037 316.34L403.435 315.844L402.8 316.616L403.402 317.112L404.037 316.34ZM403.503 316.548L403.961 315.992L403.189 315.356L402.731 315.912L403.503 316.548ZM403.257 316.06L404.693 317.242L405.329 316.47L403.892 315.288L403.257 316.06ZM404.625 316.538L403.157 318.322L403.93 318.957L405.397 317.173L404.625 316.538ZM406.082 320.845L405.764 321.231L406.15 321.548L406.468 321.162L406.082 320.845ZM404.414 319.472L404.028 319.155L403.71 319.541L404.096 319.858L404.414 319.472ZM404.948 318.824L405.265 318.437L404.879 318.12L404.561 318.506L404.948 318.824ZM405.365 319.167L405.047 319.553L405.433 319.87L405.751 319.484L405.365 319.167ZM406.966 317.221L407.352 317.538L407.669 317.152L407.283 316.835L406.966 317.221ZM406.549 316.878L406.163 316.56L405.845 316.946L406.231 317.264L406.549 316.878ZM407.082 316.229L407.4 315.843L407.014 315.525L406.696 315.911L407.082 316.229ZM408.75 317.601L409.136 317.919L409.454 317.533L409.068 317.215L408.75 317.601ZM408.217 318.25L407.899 318.636L408.285 318.954L408.603 318.568L408.217 318.25ZM407.8 317.907L408.117 317.521L407.731 317.203L407.414 317.589L407.8 317.907ZM406.199 319.853L405.813 319.535L405.495 319.921L405.881 320.239L406.199 319.853ZM406.616 320.196L407.002 320.514L407.319 320.127L406.933 319.81L406.616 320.196ZM406.4 320.459L404.732 319.086L404.096 319.858L405.764 321.231L406.4 320.459ZM404.8 319.79L405.334 319.141L404.561 318.506L404.028 319.155L404.8 319.79ZM404.63 319.21L405.047 319.553L405.682 318.781L405.265 318.437L404.63 319.21ZM405.751 319.484L407.352 317.538L406.58 316.903L404.978 318.849L405.751 319.484ZM407.283 316.835L406.866 316.491L406.231 317.264L406.648 317.607L407.283 316.835ZM406.935 317.195L407.468 316.547L406.696 315.911L406.163 316.56L406.935 317.195ZM406.765 316.615L408.433 317.987L409.068 317.215L407.4 315.843L406.765 316.615ZM408.364 317.284L407.831 317.932L408.603 318.568L409.136 317.919L408.364 317.284ZM408.534 317.864L408.117 317.521L407.482 318.293L407.899 318.636L408.534 317.864ZM407.414 317.589L405.813 319.535L406.585 320.171L408.186 318.224L407.414 317.589ZM405.881 320.239L406.298 320.582L406.933 319.81L406.516 319.467L405.881 320.239ZM406.23 319.878L405.696 320.527L406.468 321.162L407.002 320.514L406.23 319.878ZM408.469 321.72L408.083 321.403L407.765 321.789L408.151 322.107L408.469 321.72ZM410.16 323.112L410.546 323.43L410.864 323.043L410.477 322.726L410.16 323.112ZM409.626 323.761L409.308 324.147L409.695 324.464L410.012 324.078L409.626 323.761ZM407.101 321.683L406.715 321.365L406.397 321.751L406.783 322.069L407.101 321.683ZM409.769 318.44L410.087 318.053L409.701 317.736L409.383 318.122L409.769 318.44ZM410.603 319.126L410.989 319.443L411.307 319.057L410.921 318.74L410.603 319.126ZM408.151 322.107L409.842 323.498L410.477 322.726L408.786 321.334L408.151 322.107ZM409.774 322.794L409.24 323.443L410.012 324.078L410.546 323.43L409.774 322.794ZM409.944 323.374L407.419 321.297L406.783 322.069L409.308 324.147L409.944 323.374ZM407.487 322.001L410.155 318.757L409.383 318.122L406.715 321.365L407.487 322.001ZM409.452 318.826L410.286 319.512L410.921 318.74L410.087 318.053L409.452 318.826ZM410.217 318.808L408.083 321.403L408.855 322.038L410.989 319.443L410.217 318.808ZM413.125 326.639L412.808 327.026L413.194 327.343L413.512 326.957L413.125 326.639ZM410.554 324.524L410.168 324.206L409.85 324.592L410.236 324.91L410.554 324.524ZM413.222 321.28L413.54 320.894L413.154 320.577L412.836 320.963L413.222 321.28ZM415.794 323.396L416.18 323.714L416.498 323.328L416.112 323.01L415.794 323.396ZM415.26 324.045L414.943 324.431L415.329 324.749L415.646 324.362L415.26 324.045ZM413.523 322.615L413.84 322.229L413.454 321.911L413.137 322.298L413.523 322.615ZM413.008 323.241L412.622 322.923L412.304 323.309L412.69 323.627L413.008 323.241ZM414.375 324.365L414.761 324.683L415.079 324.297L414.693 323.979L414.375 324.365ZM413.841 325.014L413.524 325.4L413.91 325.718L414.227 325.332L413.841 325.014ZM412.474 323.889L412.792 323.503L412.406 323.186L412.088 323.572L412.474 323.889ZM411.922 324.561L411.535 324.244L411.218 324.63L411.604 324.947L411.922 324.561ZM413.659 325.991L414.045 326.308L414.363 325.922L413.977 325.605L413.659 325.991ZM413.443 326.253L410.872 324.138L410.236 324.91L412.808 327.026L413.443 326.253ZM410.94 324.841L413.608 321.598L412.836 320.963L410.168 324.206L410.94 324.841ZM412.905 321.667L415.476 323.782L416.112 323.01L413.54 320.894L412.905 321.667ZM415.408 323.078L414.874 323.727L415.646 324.362L416.18 323.714L415.408 323.078ZM415.578 323.659L413.84 322.229L413.205 323.001L414.943 324.431L415.578 323.659ZM413.137 322.298L412.622 322.923L413.394 323.558L413.909 322.933L413.137 322.298ZM412.69 323.627L414.057 324.751L414.693 323.979L413.326 322.855L412.69 323.627ZM413.989 324.048L413.455 324.696L414.227 325.332L414.761 324.683L413.989 324.048ZM414.159 324.628L412.792 323.503L412.157 324.276L413.524 325.4L414.159 324.628ZM412.088 323.572L411.535 324.244L412.308 324.879L412.86 324.207L412.088 323.572ZM411.604 324.947L413.341 326.377L413.977 325.605L412.239 324.175L411.604 324.947ZM413.273 325.673L412.739 326.322L413.512 326.957L414.045 326.308L413.273 325.673ZM416.766 324.196L417.083 323.81L416.697 323.492L416.38 323.878L416.766 324.196ZM419.233 326.599L418.735 326.642L418.736 326.652L419.233 326.599ZM417.912 328.394L417.747 327.922L417.739 327.924L417.912 328.394ZM417.276 328.345L417.49 327.893L416.896 327.611L416.783 328.259L417.276 328.345ZM417.016 329.841L416.699 330.227L417.362 330.773L417.509 329.926L417.016 329.841ZM416.113 329.097L415.622 329.004L415.566 329.295L415.795 329.483L416.113 329.097ZM416.381 327.686L416.872 327.779L416.927 327.488L416.698 327.3L416.381 327.686ZM415.732 327.152L416.05 326.766L415.663 326.448L415.346 326.835L415.732 327.152ZM414.931 328.125L414.614 328.511L415 328.829L415.318 328.443L414.931 328.125ZM414.097 327.439L413.711 327.121L413.394 327.508L413.78 327.825L414.097 327.439ZM417.066 325.531L417.384 325.144L416.998 324.827L416.68 325.213L417.066 325.531ZM416.266 326.504L415.879 326.186L415.562 326.572L415.948 326.89L416.266 326.504ZM416.448 324.582L418.394 326.183L419.03 325.411L417.083 323.81L416.448 324.582ZM418.394 326.183C418.672 326.411 418.729 326.567 418.735 326.642L419.731 326.555C419.691 326.095 419.401 325.716 419.03 325.411L418.394 326.183ZM418.736 326.652C418.744 326.727 418.718 326.891 418.49 327.168L419.262 327.804C419.568 327.432 419.78 327.005 419.73 326.545L418.736 326.652ZM418.49 327.168L418.147 327.585L418.919 328.221L419.262 327.804L418.49 327.168ZM418.147 327.585C417.965 327.806 417.829 327.893 417.747 327.922L418.076 328.866C418.401 328.753 418.679 328.512 418.919 328.221L418.147 327.585ZM417.739 327.924C417.685 327.944 417.614 327.952 417.49 327.893L417.061 328.796C417.385 328.95 417.737 328.99 418.084 328.863L417.739 327.924ZM416.783 328.259L416.524 329.755L417.509 329.926L417.769 328.43L416.783 328.259ZM417.334 329.455L416.431 328.711L415.795 329.483L416.699 330.227L417.334 329.455ZM416.604 329.191L416.872 327.779L415.889 327.593L415.622 329.004L416.604 329.191ZM416.698 327.3L416.05 326.766L415.414 327.538L416.063 328.072L416.698 327.3ZM415.346 326.835L414.545 327.808L415.318 328.443L416.118 327.47L415.346 326.835ZM415.249 327.739L414.415 327.053L413.78 327.825L414.614 328.511L415.249 327.739ZM414.483 327.757L417.152 324.513L416.38 323.878L413.711 327.121L414.483 327.757ZM418.428 327.117C418.553 326.965 418.667 326.749 418.642 326.486C418.616 326.223 418.463 326.032 418.31 325.907L417.675 326.679C417.708 326.706 417.656 326.677 417.646 326.582C417.637 326.488 417.683 326.449 417.656 326.482L418.428 327.117ZM418.31 325.907L417.384 325.144L416.748 325.917L417.675 326.679L418.31 325.907ZM416.68 325.213L415.879 326.186L416.652 326.821L417.452 325.848L416.68 325.213ZM415.948 326.89L416.875 327.652L417.51 326.88L416.583 326.117L415.948 326.89ZM416.875 327.652C417.027 327.777 417.243 327.891 417.506 327.866C417.769 327.84 417.96 327.687 418.085 327.534L417.313 326.899C417.286 326.932 417.315 326.88 417.41 326.87C417.504 326.861 417.543 326.907 417.51 326.88L416.875 327.652ZM418.085 327.534L418.428 327.117L417.656 326.482L417.313 326.899L418.085 327.534ZM418.614 331.155L418.296 331.541L418.567 331.764L418.869 331.584L418.614 331.155ZM417.71 330.411L417.462 329.978L416.833 330.338L417.393 330.798L417.71 330.411ZM421.606 328.178L421.924 327.792L421.657 327.573L421.358 327.744L421.606 328.178ZM422.533 328.941L423.007 329.101L423.117 328.774L422.851 328.555L422.533 328.941ZM421.093 333.194L420.775 333.58L421.334 334.04L421.566 333.355L421.093 333.194ZM420.189 332.451L419.718 332.283L419.6 332.614L419.871 332.837L420.189 332.451ZM420.457 331.7L420.928 331.868L421.046 331.537L420.775 331.314L420.457 331.7ZM419.299 330.747L419.616 330.361L419.345 330.138L419.043 330.318L419.299 330.747ZM420.003 330.316L419.74 329.891L419.146 330.259L419.685 330.702L420.003 330.316ZM420.744 330.926L420.426 331.312L420.966 331.756L421.212 331.103L420.744 330.926ZM421.269 329.532L421.737 329.709L422.255 328.334L421.006 329.107L421.269 329.532ZM418.931 330.769L418.028 330.025L417.393 330.798L418.296 331.541L418.931 330.769ZM417.959 330.845L421.855 328.612L421.358 327.744L417.462 329.978L417.959 330.845ZM421.289 328.564L422.215 329.327L422.851 328.555L421.924 327.792L421.289 328.564ZM422.06 328.78L420.619 333.034L421.566 333.355L423.007 329.101L422.06 328.78ZM421.41 332.808L420.507 332.065L419.871 332.837L420.775 333.58L421.41 332.808ZM420.66 332.619L420.928 331.868L419.986 331.532L419.718 332.283L420.66 332.619ZM420.775 331.314L419.616 330.361L418.981 331.133L420.139 332.086L420.775 331.314ZM419.043 330.318L418.358 330.725L418.869 331.584L419.554 331.177L419.043 330.318ZM419.685 330.702L420.426 331.312L421.062 330.54L420.32 329.93L419.685 330.702ZM421.212 331.103L421.737 329.709L420.801 329.356L420.276 330.75L421.212 331.103ZM421.006 329.107L419.74 329.891L420.266 330.742L421.532 329.958L421.006 329.107Z" fill="black" mask="url(#path-40-outside-2_130_4641)"/>
</g>
<path id="Vector 932" d="M478.52 253.828C462.219 255.4 453.868 256.46 450.422 260.953L449.909 261.946L451.362 265.466L465.24 274.652C503.252 273.718 521.849 275.096 553.192 278.83L555.319 269.358C525.738 254.135 510.493 251.098 484.087 248.902L478.52 253.828Z" fill="black" stroke="black"/>
<path id="Vector 933" d="M484.093 248.403L478.527 253.329L454.31 232.003L448.925 223.43C445.183 206.021 444.971 197.694 445.954 183.887L457.033 178.035C477.028 200.863 481.898 216.797 484.093 248.403Z" fill="black" stroke="black"/>
<path id="Vector 908_3" d="M426.054 213.623L450.382 263.953L437.984 256.286C429.575 240.732 425.222 232.141 418.008 217.015L426.054 213.623Z" fill="#B2B2BA" stroke="black"/>
<path id="Vector 934" d="M429.466 220.17L449.902 262.447C453.466 256.891 458.449 254.758 475.52 253.789L453.283 233.99L446.905 224.903L445.978 219.391L442.452 221.344L437.013 216.77L429.466 220.17Z" fill="url(#paint14_linear_130_4641)" stroke="black"/>
<path id="Vector 935" d="M398.822 230.759L407.334 229.873L420.927 223.054L430.178 241.68L424.599 247.606L398.822 230.759Z" fill="black" stroke="black"/>
<path id="Vector 936" d="M365.245 236.311L364.097 247.297L398.322 230.754L407.341 229.374L414.887 225.975L388.39 225.62L365.245 236.311Z" fill="black" stroke="black"/>
<path id="Vector 937" d="M479.1 240.839C479.904 228.682 479.067 223.243 473.375 220.261C471.563 220.198 470.642 220.401 469.178 221.205C463.628 229.633 466.205 232.535 477.597 241.091C477.92 241.333 478.763 240.587 479.1 240.839Z" fill="url(#paint15_linear_130_4641)" stroke="black"/>
<path id="Vector 938" d="M469.537 169.234L467.024 170.199C468.511 171.219 469.435 171.869 468.977 173.726C470.827 172.442 471.49 172.106 472.017 170.762C471.016 169.39 470.478 169.108 469.537 169.234Z" fill="#585858" stroke="black"/>
<g id="Vector 939">
<path d="M461.469 174.197C459.997 172.176 463.057 167.717 468.502 171.791C470.462 174.817 466.748 177.948 463.943 176.229L465.963 174.756L463.476 173.723L461.469 174.197Z" fill="#585858"/>
<path d="M463.476 173.723C464.496 172.237 467.476 173.777 465.963 174.756M463.476 173.723L465.963 174.756M463.476 173.723L461.469 174.197C459.997 172.176 463.057 167.717 468.502 171.791C470.462 174.817 466.748 177.948 463.943 176.229L465.963 174.756" stroke="black"/>
</g>
<path id="Vector 940" d="M363.598 247.289L364.225 237.797C316.514 264.729 273.686 258.168 188.747 234.947L188.62 244.446L325.606 283.784L359.384 263.234L363.598 247.289Z" fill="#141414" stroke="black"/>
<circle id="Ellipse 164" cx="506.19" cy="390.712" r="2.5" transform="rotate(0.766998 506.19 390.712)" fill="#D9D9D9" stroke="black"/>
</g>
<circle id="Ellipse 163" cx="179.164" cy="389.986" r="2.5" fill="#D9D9D9" stroke="black"/>
<circle id="Ellipse 164_2" cx="506.164" cy="390.986" r="2.5" fill="#D9D9D9" stroke="black"/>
</g>
<defs>
<linearGradient id="paint0_linear_130_4641" x1="377.007" y1="304.696" x2="274.313" y2="230.594" gradientUnits="userSpaceOnUse">
<stop stop-color="#B2B2BA"/>
<stop offset="1" stop-color="#6C6C6C"/>
</linearGradient>
<linearGradient id="paint1_linear_130_4641" x1="377.007" y1="304.696" x2="274.313" y2="230.594" gradientUnits="userSpaceOnUse">
<stop stop-color="#B2B2BA"/>
<stop offset="1" stop-color="#6C6C6C"/>
</linearGradient>
<linearGradient id="paint2_linear_130_4641" x1="236.164" y1="210.986" x2="388.164" y2="372.486" gradientUnits="userSpaceOnUse">
<stop stop-color="#040404"/>
<stop offset="1" stop-color="#7B7B7B"/>
</linearGradient>
<linearGradient id="paint3_linear_130_4641" x1="371.215" y1="275.896" x2="422.8" y2="344.593" gradientUnits="userSpaceOnUse">
<stop stop-color="#B60421"/>
<stop offset="1" stop-color="#50020F"/>
</linearGradient>
<linearGradient id="paint4_linear_130_4641" x1="371.215" y1="275.896" x2="422.8" y2="344.593" gradientUnits="userSpaceOnUse">
<stop stop-color="#B60421"/>
<stop offset="1" stop-color="#50020F"/>
</linearGradient>
<linearGradient id="paint5_linear_130_4641" x1="371.215" y1="275.896" x2="422.8" y2="344.593" gradientUnits="userSpaceOnUse">
<stop stop-color="#B60421"/>
<stop offset="1" stop-color="#50020F"/>
</linearGradient>
<linearGradient id="paint6_linear_130_4641" x1="398.378" y1="245.255" x2="432.121" y2="320.713" gradientUnits="userSpaceOnUse">
<stop stop-color="#050505"/>
<stop offset="1" stop-color="#6B6B6B"/>
</linearGradient>
<linearGradient id="paint7_linear_130_4641" x1="387.024" y1="271.607" x2="410.476" y2="331.426" gradientUnits="userSpaceOnUse">
<stop stop-color="#0B0B0B"/>
<stop offset="1" stop-color="#717171"/>
</linearGradient>
<linearGradient id="paint8_linear_130_4641" x1="413.267" y1="234.953" x2="435.739" y2="349.264" gradientUnits="userSpaceOnUse">
<stop offset="0.246724" stop-color="white"/>
<stop offset="1" stop-color="#999999"/>
</linearGradient>
<linearGradient id="paint9_linear_130_4641" x1="407.562" y1="237.041" x2="404.891" y2="259.672" gradientUnits="userSpaceOnUse">
<stop/>
<stop offset="1" stop-color="#666666"/>
</linearGradient>
<linearGradient id="paint10_linear_130_4641" x1="415.733" y1="240.084" x2="407.297" y2="250.663" gradientUnits="userSpaceOnUse">
<stop stop-color="#DA1212"/>
<stop offset="1" stop-color="#720974"/>
</linearGradient>
<linearGradient id="paint11_linear_130_4641" x1="430.611" y1="246.688" x2="421.331" y2="267.565" gradientUnits="userSpaceOnUse">
<stop stop-color="#7E1D6D"/>
<stop offset="1" stop-color="#DC1515"/>
</linearGradient>
<linearGradient id="paint12_linear_130_4641" x1="430.611" y1="246.688" x2="421.331" y2="267.565" gradientUnits="userSpaceOnUse">
<stop stop-color="#7E1D6D"/>
<stop offset="1" stop-color="#DC1515"/>
</linearGradient>
<linearGradient id="paint13_linear_130_4641" x1="410.077" y1="316.821" x2="404.515" y2="329.468" gradientUnits="userSpaceOnUse">
<stop offset="1" stop-color="white"/>
</linearGradient>
<linearGradient id="paint14_linear_130_4641" x1="474.907" y1="262.282" x2="423.826" y2="230.595" gradientUnits="userSpaceOnUse">
<stop stop-color="#141414"/>
<stop offset="1"/>
</linearGradient>
<linearGradient id="paint15_linear_130_4641" x1="470.469" y1="220.218" x2="473.155" y2="243.756" gradientUnits="userSpaceOnUse">
<stop stop-color="white"/>
<stop offset="1" stop-color="#FFDF00"/>
</linearGradient>
</defs>
</svg>
