<svg width="671" height="560" viewBox="0 0 671 560" fill="none" xmlns="http://www.w3.org/2000/svg">
<g id="Frame 16">
<g id="Component 183">
<g id="Component 182">
<g id="Vector 903">
<path d="M99.4251 295.759L119.506 252.523L118.079 247.004L116.403 244.318L113.674 239.944L109.721 236.391L118.26 233.505C145.623 232.008 160.99 231.451 188.754 234.449C269.965 249.47 315.467 257.857 364.738 236.805L388.39 225.62L407.388 225.875L407.335 229.874L420.927 223.056L430.179 241.681L438.961 257.995L451.847 266.571L449.836 262.446L428.473 219.656L436.519 216.264L441.959 220.837L445.983 219.073C442.823 203.987 443.501 197.113 443.947 184.36L445.454 183.881L457.033 178.035C473.675 197.4 480.333 207.293 484.087 248.904C515.294 251.643 530.76 256.325 555.319 269.359L553.186 279.331C522.137 275.86 503.348 274.372 474.738 274.896L482.025 290.88L485.018 291.42L486.957 295.946L486.417 298.939L498.581 324.104C493.937 324.896 492.603 325.177 488.549 326.47L477.351 303.818L475.365 302.792L473.432 297.765L474.472 294.779L464.734 275.147L463.7 277.633C461.594 278.534 459.583 279.409 457.665 280.271L470.798 307.731L474.298 307.778L476.717 313.811L476.691 315.811L506.298 382.713C514.324 380.82 518.716 388.88 513.116 396.305L508.09 398.238C498.943 400.139 497.174 396.425 496.245 386.579L465.625 320.663L463.145 319.129L459.719 313.583L462.259 310.617L449.613 284.101C434.28 291.934 426.434 299.922 423.175 316.594L424.881 338.619L404.603 321.846C387.057 305.828 374.811 301.319 352.545 294.809L316.165 316.662C313.147 321.669 311.314 326.229 307.891 337.053C307.518 341.003 308.173 343.386 310.248 347.774C316.747 347.861 319.183 352.705 314.124 357.015L314.059 361.909L303.476 367.997L301.163 372.716L288.914 372.552L284.346 359.74C284.515 362.163 284.205 364.982 283.465 368.729C241.824 383.981 217.861 391.167 172.073 397.24C169.21 391.264 169.639 388.262 172.261 383.241L180.26 383.348L187.953 368.95C190.19 361.326 194.008 360.754 203.526 363.658L203.338 377.657L254.601 358.341L254.742 347.842L264.395 336.471L259.27 308.399L256.271 308.359C258.678 314.919 258.666 318.223 256.063 323.858L221.066 323.389L179.712 274.831L174.326 266.297C167.234 265.812 160.434 265.463 153.342 264.978C150.174 261.04 151.276 257.099 154.982 254.499L166.981 254.659C162.284 251.808 158.148 249.603 154.072 247.804C136.616 256.844 127.299 265.698 112.431 295.433L99.4251 295.759Z" fill="url(#paint0_linear_130_4641)"/>
<path d="M501.586 361.148L495.287 346.062C498.699 344.875 500.177 344.673 503.516 344.217L503.813 344.176L507.206 352.222L505.585 361.201C503.784 361.061 503.092 360.668 501.586 361.148Z" fill="url(#paint1_linear_130_4641)"/>
<path d="M119.506 252.523L99.4251 295.759L112.431 295.433C127.299 265.698 136.616 256.844 154.072 247.804M119.506 252.523L118.079 247.004L116.403 244.318M119.506 252.523L131.005 252.677C134.717 249.755 135.549 246.689 127.119 244.125M113.674 239.944L109.721 236.391L118.26 233.505C145.623 232.008 160.99 231.451 188.754 234.449M113.674 239.944C118.949 239.66 121.908 239.624 127.172 240.125M113.674 239.944L116.403 244.318M188.754 234.449C274.529 256.757 315.151 264.658 364.738 236.805M188.754 234.449C269.965 249.47 315.467 257.857 364.738 236.805M364.738 236.805L388.39 225.62L407.388 225.875L407.335 229.874L420.927 223.056L430.179 241.681M364.738 236.805L363.591 247.79M430.179 241.681L424.092 248.1L451.847 266.571M430.179 241.681L438.961 257.995M464.734 275.147L463.7 277.633M464.734 275.147L451.847 266.571M464.734 275.147C468.212 275.038 471.537 274.954 474.738 274.896M464.734 275.147L474.472 294.779L473.432 297.765L475.365 302.792L477.351 303.818M484.087 248.904C515.294 251.643 530.76 256.325 555.319 269.359L553.186 279.331C522.137 275.86 503.348 274.372 474.738 274.896M484.087 248.904C480.333 207.293 473.675 197.4 457.033 178.035L445.454 183.881M484.087 248.904L478.52 253.829M445.454 183.881C445.409 187.2 445.384 189.061 445.34 192.38C445.179 203.191 445.711 208.828 447.492 218.411M445.454 183.881L443.947 184.36C443.501 197.113 442.823 203.987 445.983 219.073M447.492 218.411C447.946 221.168 448.128 222.071 448.425 223.424L454.304 232.503L478.52 253.829M447.492 218.411L445.983 219.073M463.7 277.633L390.269 234.646L366.104 246.824L363.591 247.79M463.7 277.633C461.594 278.534 459.583 279.409 457.665 280.271M363.591 247.79L361.484 255.763M359.377 263.735L325.599 284.285M359.377 263.735L364.877 263.809M359.377 263.735L361.484 255.763M325.599 284.285L301.894 299.469M325.599 284.285L314.64 281.138M166.981 254.659L188.613 244.948L295.711 275.702M166.981 254.659C162.284 251.808 158.148 249.603 154.072 247.804M166.981 254.659L154.982 254.499C151.276 257.099 150.174 261.04 153.342 264.978C160.434 265.463 167.234 265.812 174.326 266.297M166.981 254.659L179.712 274.831L221.066 323.389L256.063 323.858C258.666 318.223 258.678 314.919 256.271 308.359M166.981 254.659L226.159 316.457L231.659 316.531L254.311 305.333L256.271 308.359M166.981 254.659L226.26 308.958C228.498 309.727 229.842 309.876 232.259 309.038L251.871 300.8C251.36 295.058 250.415 292.029 247.552 287.241L166.981 254.659ZM127.172 240.125C127.923 241.51 128.002 242.358 127.119 244.125M127.172 240.125C138.396 242.327 146.121 244.294 154.072 247.804M127.119 244.125C123.216 244.682 120.842 244.689 116.403 244.318M256.271 308.359L259.27 308.399L264.395 336.471L254.742 347.842L254.601 358.341M254.601 358.341L203.338 377.657L203.526 363.658C194.008 360.754 190.19 361.326 187.953 368.95L180.26 383.348L172.261 383.241C169.639 388.262 169.21 391.264 172.073 397.24C217.861 391.167 241.824 383.981 283.465 368.729C284.205 364.982 284.515 362.163 284.346 359.74M254.601 358.341L262.129 356.319M281.199 351.197L262.129 356.319M281.199 351.197C283.114 354.148 284.128 356.615 284.346 359.74M281.199 351.197L275.751 347.312M262.129 356.319L275.751 347.312M303.476 367.997L292.859 339.352L289.373 338.305L275.751 347.312M303.476 367.997L301.163 372.716L288.914 372.552L284.346 359.74M303.476 367.997L314.059 361.909L314.124 357.015C319.183 352.705 316.747 347.861 310.248 347.774C308.173 343.386 307.518 341.003 307.891 337.053C311.314 326.229 313.147 321.669 316.165 316.662C336.835 304.245 348.424 297.284 369.095 284.867M423.175 316.594L424.881 338.619L404.603 321.846C386.905 305.689 374.599 301.242 351.963 294.639M423.175 316.594C426.434 299.922 434.28 291.934 449.613 284.101M423.175 316.594C416.61 294.676 412.924 282.4 401.373 264.298L403.474 256.825C388.055 257.246 379.463 257.84 364.877 263.809M451.847 266.571L449.836 262.446M457.665 280.271L470.798 307.731L474.298 307.778L476.717 313.811L476.691 315.811M457.665 280.271C454.776 281.567 452.096 282.832 449.613 284.101M476.691 315.811L465.625 320.663M476.691 315.811L506.298 382.713C514.324 380.82 518.716 388.88 513.116 396.305L508.09 398.238C498.943 400.139 497.174 396.425 496.245 386.579L465.625 320.663M465.625 320.663L463.145 319.129L459.719 313.583L462.259 310.617L449.613 284.101M474.738 274.896L482.025 290.88L485.018 291.42L486.957 295.946L486.417 298.939M477.351 303.818L486.417 298.939M477.351 303.818L488.549 326.47C492.603 325.177 493.937 324.896 498.581 324.104L486.417 298.939M364.877 263.809L384.328 267.57L389.782 271.006M369.095 284.867L402.844 303.821L404.911 298.848L394.245 273.818L389.782 271.006M369.095 284.867L389.782 271.006M415.282 291.986C416.134 285.813 416.878 280.871 419.718 276.044C425.671 272.065 429.526 271.312 437.29 270.779C419.244 259.039 409.035 253.237 390.425 245.149C388.126 245.051 386.844 245.231 384.616 246.072L361.484 255.763M301.894 299.469C301.105 300.044 300.663 300.367 299.874 300.942L293.113 320.354C292.269 321.796 291.423 321.847 289.6 321.307L259.357 301.9L289.988 292.309M301.894 299.469C297.595 294.653 294.836 293.951 289.988 292.309M289.988 292.309L314.64 281.138M314.64 281.138L307.666 279.136M307.666 279.136L295.711 275.702M307.666 279.136L286.544 288.155L275.104 283.609L295.711 275.702M478.52 253.829C477.662 253.876 476.829 253.924 476.018 253.973M449.836 262.446L428.473 219.656L436.519 216.264L441.959 220.837L445.983 219.073M449.836 262.446C451.685 256.875 458.125 255.063 476.018 253.973M476.018 253.973L453.284 233.99L446.911 224.404L445.983 219.073M264.631 281.469L250.059 286.774L250.539 288.281L265.111 282.975L264.631 281.469ZM251.499 291.294L252.472 293.307L272.564 286.575L271.59 284.562L251.499 291.294ZM253.925 296.827L281.049 287.689L282.016 290.202L254.891 299.34L253.925 296.827ZM495.287 346.062L501.586 361.148C503.092 360.668 503.784 361.061 505.585 361.201L507.206 352.222L503.813 344.176C500.262 344.662 498.799 344.84 495.287 346.062Z" stroke="black"/>
</g>
<g id="Vector 906">
<path d="M309.467 371.58C306.421 375.037 301.948 372.981 302.502 368.986C303.056 364.991 308.788 357.254 315.195 354.655C317.741 354.162 318.683 354.301 320.194 354.722C320.894 355.087 321.554 355.442 322.18 355.788C322.295 354.387 322.376 353.04 322.452 351.75L322.465 351.525C322.622 348.838 322.765 346.405 323.158 344.259C319.482 342.673 316.819 340.22 315.423 337.568L308.924 334.567L316.165 316.663L333.81 305.898L335.323 307.918L345.822 308.059L345.792 310.292C346.784 308.916 347.502 307.412 348.355 305.593L352.354 305.646L350.294 310.119L352.288 310.646C352.773 309.124 353.162 308.407 354.328 307.673C355.245 305.783 355.949 305.242 357.367 304.713L363.347 306.293L363.374 304.293L359.874 304.247L359.934 299.747L365.434 299.821L365.447 298.821L367.94 299.354L367.913 301.354L367.853 305.854L366.853 305.84L366.833 307.34L373.306 309.427C373.813 310.61 373.916 311.257 373.266 312.427C373.666 313.931 373.716 314.735 372.719 315.92C379.133 317.637 382.953 319.881 385.245 324.588L386.637 322.106L385.674 319.36L385.178 319.087L387.971 309.123C392.571 311.873 395.131 313.704 399.664 317.28L402.163 320.314C416.711 340.005 409.787 352.936 388.401 377.135C382.184 380.512 379.518 379.474 376.482 370.977C380.589 356.848 383.025 349.104 387.95 336.125L387.793 335.123C378.13 359.804 369.232 369.086 353.944 373.673L324.949 373.285L318.886 377.706C314.04 378.603 313.035 376.889 312.967 371.627L309.467 371.58Z" fill="url(#paint2_linear_130_4641)"/>
<path d="M309.467 371.58C306.421 375.037 301.948 372.981 302.502 368.986C303.056 364.991 308.788 357.254 315.195 354.655C317.741 354.162 318.683 354.301 320.194 354.722C320.894 355.087 321.554 355.442 322.18 355.788M309.467 371.58L312.967 371.627M309.467 371.58C311.145 365.781 313.01 363.48 316.627 359.675C318.068 358.925 318.954 358.967 320.627 359.728L333.985 370.408C343.005 370.741 347.692 370.779 350.011 368.622L351.557 365.143L348.538 366.602C344.135 367.384 341.338 367.243 336.039 366.435C335.858 366.263 335.68 366.093 335.504 365.926M312.967 371.627L313.021 367.627M312.967 371.627L318.967 371.707M312.967 371.627C313.035 376.889 314.04 378.603 318.886 377.706L324.949 373.285M313.021 367.627L315.034 366.654L322.033 366.748M313.021 367.627L319.02 367.707M322.033 366.748L319.02 367.707M322.033 366.748C323.22 367.735 323.722 368.401 323.486 370.267M319.02 367.707L318.967 371.707M318.967 371.707L323.486 370.267M323.486 370.267L323.533 366.768L329.533 366.848M332.713 369.391L326.999 369.314L326.993 369.814L326.966 371.814L324.949 373.285M324.949 373.285L353.944 373.673C369.232 369.086 378.13 359.804 387.793 335.123M322.18 355.788C328.232 359.138 331.109 361.741 335.504 365.926M322.18 355.788C322.295 354.387 322.376 353.04 322.452 351.75M339.021 330.47L337.521 330.45L337.541 328.95L339.041 328.97L339.068 326.97M339.021 330.47L338.968 334.469C341.886 334.893 344.383 335.785 346.434 337.013M339.021 330.47L346.494 332.57M335.504 365.926C338.628 365.108 341.318 364.005 343.59 362.7M322.452 351.75L325.182 355.829L335.545 362.926L343.59 362.7M322.452 351.75C322.615 348.974 322.754 346.465 323.158 344.259M343.59 362.7C345.125 361.818 346.47 360.844 347.629 359.803M323.158 344.259C323.276 343.616 323.416 343 323.585 342.41M323.158 344.259C319.482 342.673 316.819 340.22 315.423 337.568M331.965 334.643C332.287 334.553 332.622 334.469 332.968 334.389L333.022 330.389L334.521 330.41L334.541 328.91L333.042 328.89L333.068 326.89M331.965 334.643C324.743 325.138 315.563 327.155 314.503 331.642C314.053 333.546 314.394 335.611 315.423 337.568M331.965 334.643C326.859 336.058 324.645 338.717 323.585 342.41M323.585 342.41L320.889 340.228M320.889 340.228L325.429 337.288L325.455 335.289L323.955 335.269L323.976 333.769L334.276 311.405L335.289 310.418L345.788 310.559L345.822 308.059L335.323 307.918M320.889 340.228C316.602 337.667 316.183 335.89 318.496 332.195L318.536 329.195C319.325 327.196 320.395 326.695 323.774 328.266L332.796 309.885L335.323 307.918M335.323 307.918L333.81 305.898L316.165 316.663L308.924 334.567L315.423 337.568M349.074 326.604L346.574 326.571L346.534 329.57M349.074 326.604L349.02 330.604L361.019 330.764C365.032 330.922 364.903 332.628 362.939 336.791L362.885 340.79M349.074 326.604L349.121 323.104M352.081 343.146L362.852 343.29L362.885 340.79M352.081 343.146C350.974 340.731 349.074 338.593 346.434 337.013M352.081 343.146C354.464 348.347 353.163 354.833 347.629 359.803M346.434 337.013L346.46 335.07L346.494 332.57M349.121 323.104L351.62 323.138M349.121 323.104C346.05 319.035 343.28 317.856 337.709 316.451C344.881 312.816 346.183 310.228 348.355 305.593L352.354 305.646L350.294 310.119L352.288 310.646M351.62 323.138L351.681 318.638M351.62 323.138L352.347 323.226M351.681 318.638L350.187 318.118C350.833 314.87 351.315 313.289 352.288 310.646M351.681 318.638L370.122 323.155M352.288 310.646C352.773 309.124 353.162 308.407 354.328 307.673M352.288 310.646L372.719 315.92M354.328 307.673C355.245 305.783 355.949 305.242 357.367 304.713L363.347 306.293L363.374 304.293L359.874 304.247L359.934 299.747L365.434 299.821L365.447 298.821L367.94 299.354L367.913 301.354L367.853 305.854L366.853 305.84L366.833 307.34L373.306 309.427C373.813 310.61 373.916 311.257 373.266 312.427M354.328 307.673L373.266 312.427M373.266 312.427C373.666 313.931 373.716 314.735 372.719 315.92M372.719 315.92C372.699 318.585 372.301 320.106 371.119 323.399M372.719 315.92C379.133 317.637 382.953 319.881 385.245 324.588M371.119 323.399L370.122 323.155M371.119 323.399C373.76 326.119 375.433 326.398 378.584 325.999M370.122 323.155L370.092 325.385L356.113 323.684M372.665 319.919C374.625 321.789 375.899 322.427 378.631 322.499M393.12 323.463L392.603 324.687L387.636 334.121M393.12 323.463L399.664 317.28M393.12 323.463L385.674 319.36M399.664 317.28L402.163 320.314C416.711 340.005 409.787 352.936 388.401 377.135C382.184 380.512 379.518 379.474 376.482 370.977C380.589 356.848 383.025 349.104 387.95 336.125L387.636 334.121M399.664 317.28C395.131 313.704 392.571 311.873 387.971 309.123L385.178 319.087L385.674 319.36M385.674 319.36L386.637 322.106L385.245 324.588M385.245 324.588L376.911 338.978L377.397 339.984L377.37 341.984L372.871 341.924M372.871 341.924L368.331 344.863L363.305 346.796M372.871 341.924C371.593 341.818 369.388 340.746 368.898 339.871C368.461 339.09 366.9 339.677 366.398 339.837C364.783 341.572 364.195 343.31 363.305 346.796M363.305 346.796L361.318 345.77C352.49 344.151 351.158 357.635 365.697 354.829L366.264 349.836L368.277 348.863L375.504 346.96M387.636 334.121L382.855 343.203L380.855 343.176L377.31 346.484L375.504 346.96M347.629 359.803C354.701 365.202 358.051 366.233 361.624 360.277L364.128 360.024L364.157 357.809L368.157 357.862L368.19 355.364L369.724 352.883L369.751 350.883L372.75 350.923L375.504 346.96M371.538 329.405L372.531 329.918L372.991 332.925L378.464 334.998C379.162 331.758 378.701 330.219 374.551 328.445L371.552 328.405L371.538 329.405ZM371.538 329.405L356.093 325.198L356.113 323.684M356.113 323.684L352.347 323.226M352.347 323.226L352.302 326.647L354.553 328.178L360.553 328.258L365.519 330.825C367.439 331.578 368.062 332.217 368.478 333.864L368.438 336.864C368.197 338.432 367.483 338.694 365.912 338.831L362.885 340.79M346.534 329.57L339.068 326.97M346.534 329.57L346.494 332.57M339.068 326.97L339.101 324.47L333.102 324.39L333.068 326.89M334.608 323.91L330.622 322.857L329.589 325.343L333.068 326.89" stroke="black"/>
</g>
<g id="Vector 908">
<path d="M417.127 217.571L414.714 211.038L421.254 208.126L417.334 202.073L414.881 198.539C413.315 203.521 403.802 204.394 402.356 200.372L399.843 201.338C396.823 202.8 391.404 196.727 394.943 193.772C395.028 193.75 395.112 193.731 395.195 193.713L400.963 192.353L403.51 188.886C409.419 184.784 413.458 189.75 414.572 195.286L417.441 194.073L427.174 195.455L427.961 192.714L431.94 194.267L431.92 195.769L434.255 197.732L440.628 195.635L440.333 192.88L443.347 191.854L443.672 204.928C444.063 209.825 444.51 212.837 445.985 218.891L441.959 220.838L436.519 216.264L432.706 211.781L426.18 213.694L426.173 214.192L418.005 217.243L417.127 217.571Z" fill="#B2B2BA"/>
<path d="M426.173 214.192L426.18 213.694L432.706 211.781M426.173 214.192C423.503 215.189 419.702 216.609 418.005 217.243M426.173 214.192L428.473 219.657M421.254 208.126L414.714 211.038L417.127 217.571C417.127 217.571 417.456 217.448 418.005 217.243M421.254 208.126L417.334 202.073L414.881 198.539M421.254 208.126L424.24 209.168L425.28 206.181L429.3 204.735L431.8 204.769L429.354 200.733L431.92 195.769M414.881 198.539C413.315 203.521 403.802 204.394 402.356 200.372M414.881 198.539C414.896 197.476 414.79 196.37 414.572 195.286M394.943 193.772C391.404 196.727 396.823 202.8 399.843 201.338M394.943 193.772L400.963 192.353L403.51 188.886C409.419 184.784 413.458 189.75 414.572 195.286M394.943 193.772C400.463 192.346 402.862 199.877 399.843 201.338M394.943 193.772L405.47 191.915L405.483 190.915C410.003 189.475 412.909 196.515 408.376 198.955L407.382 198.439L402.356 200.372M399.843 201.338L402.356 200.372M432.706 211.781L437.739 209.349L438.793 205.362L442.799 204.916M432.706 211.781L436.519 216.264L441.959 220.838L445.985 218.891C444.51 212.837 444.063 209.825 443.672 204.928M442.799 204.916L443.672 204.928M442.799 204.916L441.508 203.83M431.92 195.769L431.94 194.267L427.961 192.714L427.174 195.455M431.92 195.769L434.255 197.732M427.174 195.455L426.387 198.196L426.354 200.693L422.854 200.646L419.381 198.6L417.441 194.073M427.174 195.455L417.441 194.073M417.441 194.073L414.572 195.286M420.835 223.055L418.005 217.243M443.672 204.928L443.347 191.854L440.333 192.88L441.508 203.83M441.508 203.83L438.843 201.59L434.255 197.732M440.628 195.635L434.255 197.732" stroke="black"/>
</g>
<g id="Vector 909">
<path d="M430.375 189.679L414.555 194.865L413.116 190.346L430.428 185.679L437.874 189.779L443.387 188.853L443.347 191.852L437.821 193.779L430.375 189.679Z" fill="#C815D2"/>
<path d="M466.579 174.662L458.02 179.048L457.033 178.034L454.013 179.494L453.027 178.481L463.593 173.622C464.274 174.585 465.065 174.662 466.579 174.662Z" fill="#C815D2"/>
<path d="M430.375 189.679L414.555 194.865L413.116 190.346L430.428 185.679L437.874 189.779L443.387 188.853L443.347 191.852L437.821 193.779L430.375 189.679Z" stroke="black"/>
<path d="M466.579 174.662L458.02 179.048L457.033 178.034L454.013 179.494L453.027 178.481L463.593 173.622C464.274 174.585 465.065 174.662 466.579 174.662Z" stroke="black"/>
</g>
<g id="Vector 912">
<path d="M166.981 254.66L179.706 275.332L221.059 323.89L256.056 324.359C259.8 318.121 257.836 310.854 254.318 304.834L231.659 316.531L226.159 316.458L166.981 254.66Z" fill="url(#paint3_linear_130_4641)"/>
<path d="M424.874 339.12L404.597 322.347C400.041 318.189 391.012 311.452 386.903 308.609C384.909 307.423 382.515 306.336 380.477 305.332C372.26 301.283 363.437 298.489 351.956 295.14L369.095 284.868L402.844 303.822L404.904 299.349L394.239 274.319L389.776 271.507L384.321 268.071L364.87 264.31C379.457 258.34 388.049 257.747 403.467 257.326L401.367 264.799C412.917 282.901 416.604 295.177 423.169 317.095L424.874 339.12Z" fill="url(#paint4_linear_130_4641)"/>
<path d="M289.988 292.31C294.836 293.951 297.095 294.647 301.394 299.463L325.099 284.279L314.64 281.139L289.988 292.31Z" fill="url(#paint5_linear_130_4641)"/>
<path d="M166.981 254.66L179.706 275.332L221.059 323.89L256.056 324.359C259.8 318.121 257.836 310.854 254.318 304.834L231.659 316.531L226.159 316.458L166.981 254.66Z" stroke="black"/>
<path d="M424.874 339.12L404.597 322.347C400.041 318.189 391.012 311.452 386.903 308.609C384.909 307.423 382.515 306.336 380.477 305.332C372.26 301.283 363.437 298.489 351.956 295.14L369.095 284.868L402.844 303.822L404.904 299.349L394.239 274.319L389.776 271.507L384.321 268.071L364.87 264.31C379.457 258.34 388.049 257.747 403.467 257.326L401.367 264.799C412.917 282.901 416.604 295.177 423.169 317.095L424.874 339.12Z" stroke="black"/>
<path d="M289.988 292.31C294.836 293.951 297.095 294.647 301.394 299.463L325.099 284.279L314.64 281.139L289.988 292.31Z" stroke="black"/>
</g>
<g id="Vector 908_2">
<path d="M400.963 192.353L403.51 188.886C409.419 184.784 413.458 189.75 414.572 195.286C414.79 196.37 414.896 197.476 414.881 198.539C413.315 203.521 403.802 204.394 402.356 200.372L399.843 201.338C396.823 202.8 391.404 196.727 394.943 193.772C395.028 193.75 395.112 193.731 395.195 193.713L400.963 192.353Z" fill="#585858"/>
<path d="M394.943 193.772C391.404 196.727 396.823 202.8 399.843 201.338M394.943 193.772L400.963 192.353L403.51 188.886C409.419 184.784 413.458 189.75 414.572 195.286C414.79 196.37 414.896 197.476 414.881 198.539C413.315 203.521 403.802 204.394 402.356 200.372M394.943 193.772C400.463 192.346 402.862 199.877 399.843 201.338M394.943 193.772L405.47 191.915L405.483 190.915C410.003 189.475 412.909 196.515 408.376 198.955L407.382 198.439L402.356 200.372M399.843 201.338L402.356 200.372" stroke="black"/>
</g>
<path id="Vector 913" d="M419.218 276.037C416.715 281.33 415.955 284.697 415.017 290.982C409.31 279.415 406.834 273.151 401.873 264.304L403.467 257.324C387.418 257.408 379.128 258.566 365.376 263.815L359.377 263.735L361.484 255.762L384.616 246.071L390.629 245.151C409.483 253.717 419.682 259.136 436.79 270.772C429.288 270.927 425.389 271.846 419.218 276.037Z" fill="url(#paint6_linear_130_4641)" stroke="black"/>
<path id="Vector 912_2" d="M404.409 298.979L402.349 303.452L369.095 284.868L389.274 271.637L393.744 273.949L404.409 298.979Z" fill="url(#paint7_linear_130_4641)" stroke="black"/>
<path id="Vector 914" d="M251.871 300.799L254.318 304.832L231.659 316.53L226.159 316.456L175.374 262.771L225.273 307.944C227.869 309.707 229.378 310.128 232.259 309.037L251.871 300.799Z" fill="black" stroke="black"/>
<path id="Vector 912_3" d="M226.266 308.459L166.988 254.16L247.559 286.742C250.421 291.53 251.366 294.559 251.878 300.301L232.266 308.539C229.848 309.377 228.504 309.228 226.266 308.459Z" fill="white" stroke="black"/>
<path id="Vector 915" d="M305.668 279.017L286.549 287.762L275.11 283.109L295.209 275.877L305.668 279.017Z" fill="white" stroke="black"/>
<path id="Vector 916" d="M256.27 308.359L259.27 308.399L259.277 307.899L258.357 301.886L290.495 291.815L313.14 281.118L307.161 279.537L286.542 288.262L276.103 283.622L275.117 282.609L293.709 275.857L188.613 244.947L168.481 254.679L248.059 286.747L251.465 293.793L252.371 300.806L256.27 308.359Z" fill="black" stroke="black"/>
<g id="Vector 912_4">
<path d="M250.046 287.775L265.118 282.476L266.091 284.489L251.019 289.788L250.046 287.775Z" fill="#515151"/>
<path d="M252.465 293.808L251.492 291.795L271.584 285.063L272.557 287.076L252.465 293.808Z" fill="#515151"/>
<path d="M280.563 286.683L253.438 295.821L254.405 298.334L281.529 289.196L280.563 286.683Z" fill="#515151"/>
<path d="M250.046 287.775L265.118 282.476L266.091 284.489L251.019 289.788L250.046 287.775Z" stroke="black"/>
<path d="M252.465 293.808L251.492 291.795L271.584 285.063L272.557 287.076L252.465 293.808Z" stroke="black"/>
<path d="M280.563 286.683L253.438 295.821L254.405 298.334L281.529 289.196L280.563 286.683Z" stroke="black"/>
</g>
<path id="Vector 917" d="M265.145 280.475L247.552 287.24L167.988 254.172L171.008 252.712C209.946 261.868 231.411 267.298 265.145 280.475Z" fill="#141414" stroke="black"/>
</g>
<path id="Vector 941" d="M289.6 321.306L260.357 301.913L290.488 292.316C295.68 294.175 298.127 295.664 300.887 299.956L299.367 301.435L293.107 320.853C291.917 321.953 291.151 322.061 289.6 321.306Z" fill="#141414" stroke="black"/>
<g id="Vector 909_2">
<path d="M430.375 189.679L414.555 194.865L413.116 190.346L430.428 185.679L437.874 189.779L443.387 188.853L443.347 191.852L437.821 193.779L430.375 189.679Z" fill="#C815D2"/>
<path d="M466.579 174.662L458.02 179.048L457.033 178.034L454.013 179.494L453.027 178.481L463.593 173.622C464.274 174.585 465.065 174.662 466.579 174.662Z" fill="#C815D2"/>
<path d="M430.375 189.679L414.555 194.865L413.116 190.346L430.428 185.679L437.874 189.779L443.387 188.853L443.347 191.852L437.821 193.779L430.375 189.679Z" stroke="black"/>
<path d="M466.579 174.662L458.02 179.048L457.033 178.034L454.013 179.494L453.027 178.481L463.593 173.622C464.274 174.585 465.065 174.662 466.579 174.662Z" stroke="black"/>
</g>
<path id="Vector 930" d="M154.982 254.497L165.981 254.645L166.481 254.651L173.327 266.244L153.342 264.976C150.382 261.937 150.443 257.437 154.982 254.497Z" fill="#141414" stroke="black"/>
<path id="Vector 929" d="M104.072 284.819L102.572 284.798L113.912 259.448L115.912 259.475L104.072 284.819Z" fill="white" stroke="black"/>
<path id="Vector 924" d="M114.173 239.949L109.721 236.389C149.564 233.548 167.803 234.584 188.12 244.44L166.995 253.658C139.033 239.326 129.439 238.738 114.173 239.949Z" fill="black" stroke="black"/>
<path id="Vector 923" d="M110.227 235.897C145.305 233.478 164.592 232.615 188.62 244.447L188.754 234.448C159.604 231.78 144.607 232.193 118.26 233.504L110.227 235.897Z" fill="black" stroke="black"/>
<path id="Vector 922" d="M363.598 247.289L364.225 237.797C316.514 264.729 273.686 258.168 188.747 234.947L188.62 244.446L325.606 283.784L359.384 263.234L363.598 247.289Z" fill="#141414" stroke="black"/>
<g id="Vector 912_5">
<path d="M461.469 174.197C459.997 172.176 463.057 167.717 468.502 171.791C470.462 174.817 466.748 177.948 463.943 176.229L465.963 174.756L463.476 173.723L461.469 174.197Z" fill="#585858"/>
<path d="M463.476 173.723C464.496 172.237 467.476 173.777 465.963 174.756M463.476 173.723L465.963 174.756M463.476 173.723L461.469 174.197C459.997 172.176 463.057 167.717 468.502 171.791C470.462 174.817 466.748 177.948 463.943 176.229L465.963 174.756" stroke="black"/>
</g>
<path id="Vector 913_2" d="M469.537 169.234L467.024 170.199C468.511 171.219 469.435 171.869 468.977 173.726C470.827 172.442 471.49 172.106 472.017 170.762C471.016 169.39 470.478 169.108 469.537 169.234Z" fill="#585858" stroke="black"/>
<path id="Vector 918" d="M362.497 254.775L364.597 247.303L390.269 234.645L398.822 230.759L464.74 274.646L464.714 276.645C441.372 286.484 428.427 294.048 423.189 315.593L415.497 292.488C415.956 285.815 416.254 282.077 420.218 276.05C426.166 270.886 430.567 271.03 438.748 271.297L438.783 271.298C420.581 258.456 410.129 252.684 391.129 245.158C389.381 244.364 388.399 244.244 386.629 245.097L362.497 254.775Z" fill="url(#paint8_linear_130_4641)" stroke="black"/>
<g id="ZMT">
<mask id="path-30-outside-1_130_4641" maskUnits="userSpaceOnUse" x="393.177" y="233.911" width="33.2449" height="23.8121" fill="black">
<rect fill="white" x="393.177" y="233.911" width="33.2449" height="23.8121"/>
<path d="M402.406 239.343L397.313 241.332L400.379 243.022L399.703 244.248L394.711 241.496L395.387 240.27L400.479 238.281L397.414 236.592L398.09 235.366L403.082 238.117L402.406 239.343ZM411.835 246.482L409.402 247.995L408.176 247.32L408.157 244.454L406.274 247.87L404.698 247.001L408.077 240.871L409.741 241.788L409.706 245.994L413.244 243.719L414.908 244.636L411.529 250.766L409.952 249.897L411.835 246.482ZM419.852 255.354L418.276 254.485L420.979 249.581L419.14 248.567L419.816 247.341L425.07 250.237L424.394 251.463L422.555 250.45L419.852 255.354Z"/>
</mask>
<path d="M402.406 239.343L397.313 241.332L400.379 243.022L399.703 244.248L394.711 241.496L395.387 240.27L400.479 238.281L397.414 236.592L398.09 235.366L403.082 238.117L402.406 239.343ZM411.835 246.482L409.402 247.995L408.176 247.32L408.157 244.454L406.274 247.87L404.698 247.001L408.077 240.871L409.741 241.788L409.706 245.994L413.244 243.719L414.908 244.636L411.529 250.766L409.952 249.897L411.835 246.482ZM419.852 255.354L418.276 254.485L420.979 249.581L419.14 248.567L419.816 247.341L425.07 250.237L424.394 251.463L422.555 250.45L419.852 255.354Z" fill="url(#paint9_linear_130_4641)"/>
<path d="M402.406 239.343L402.588 239.809L402.757 239.743L402.844 239.585L402.406 239.343ZM397.313 241.332L397.132 240.866L396.137 241.255L397.072 241.77L397.313 241.332ZM400.379 243.022L400.817 243.263L401.058 242.825L400.62 242.584L400.379 243.022ZM399.703 244.248L399.461 244.685L399.899 244.927L400.141 244.489L399.703 244.248ZM394.711 241.496L394.273 241.255L394.032 241.693L394.47 241.934L394.711 241.496ZM395.387 240.27L395.205 239.804L395.036 239.87L394.949 240.029L395.387 240.27ZM400.479 238.281L400.661 238.747L401.656 238.359L400.721 237.843L400.479 238.281ZM397.414 236.592L396.976 236.35L396.735 236.788L397.173 237.03L397.414 236.592ZM398.09 235.366L398.331 234.928L397.894 234.686L397.652 235.124L398.09 235.366ZM403.082 238.117L403.52 238.359L403.761 237.921L403.323 237.679L403.082 238.117ZM402.406 239.343L402.224 238.878L397.132 240.866L397.313 241.332L397.495 241.798L402.588 239.809L402.406 239.343ZM397.313 241.332L397.072 241.77L400.137 243.459L400.379 243.022L400.62 242.584L397.555 240.894L397.313 241.332ZM400.379 243.022L399.941 242.78L399.265 244.006L399.703 244.248L400.141 244.489L400.817 243.263L400.379 243.022ZM399.703 244.248L399.944 243.81L394.952 241.058L394.711 241.496L394.47 241.934L399.461 244.685L399.703 244.248ZM394.711 241.496L395.149 241.737L395.825 240.511L395.387 240.27L394.949 240.029L394.273 241.255L394.711 241.496ZM395.387 240.27L395.569 240.736L400.661 238.747L400.479 238.281L400.298 237.816L395.205 239.804L395.387 240.27ZM400.479 238.281L400.721 237.843L397.656 236.154L397.414 236.592L397.173 237.03L400.238 238.719L400.479 238.281ZM397.414 236.592L397.852 236.833L398.528 235.607L398.09 235.366L397.652 235.124L396.976 236.35L397.414 236.592ZM398.09 235.366L397.849 235.804L402.841 238.555L403.082 238.117L403.323 237.679L398.331 234.928L398.09 235.366ZM403.082 238.117L402.644 237.876L401.968 239.102L402.406 239.343L402.844 239.585L403.52 238.359L403.082 238.117ZM411.835 246.482L412.273 246.723L413.198 245.045L411.571 246.057L411.835 246.482ZM409.402 247.995L409.161 248.433L409.417 248.575L409.666 248.42L409.402 247.995ZM408.176 247.32L407.676 247.323L407.678 247.616L407.935 247.757L408.176 247.32ZM408.157 244.454L408.657 244.451L408.644 242.535L407.719 244.213L408.157 244.454ZM406.274 247.87L406.033 248.308L406.471 248.549L406.712 248.111L406.274 247.87ZM404.698 247.001L404.26 246.76L404.019 247.197L404.456 247.439L404.698 247.001ZM408.077 240.871L408.318 240.433L407.88 240.191L407.639 240.629L408.077 240.871ZM409.741 241.788L410.241 241.792L410.243 241.494L409.982 241.35L409.741 241.788ZM409.706 245.994L409.206 245.989L409.199 246.914L409.977 246.414L409.706 245.994ZM413.244 243.719L413.485 243.281L413.224 243.137L412.973 243.298L413.244 243.719ZM414.908 244.636L415.346 244.877L415.587 244.439L415.149 244.198L414.908 244.636ZM411.529 250.766L411.287 251.204L411.725 251.445L411.967 251.008L411.529 250.766ZM409.952 249.897L409.514 249.656L409.273 250.094L409.711 250.335L409.952 249.897ZM411.835 246.482L411.571 246.057L409.138 247.571L409.402 247.995L409.666 248.42L412.099 246.906L411.835 246.482ZM409.402 247.995L409.643 247.557L408.417 246.882L408.176 247.32L407.935 247.757L409.161 248.433L409.402 247.995ZM408.176 247.32L408.676 247.316L408.657 244.451L408.157 244.454L407.657 244.458L407.676 247.323L408.176 247.32ZM408.157 244.454L407.719 244.213L405.836 247.628L406.274 247.87L406.712 248.111L408.595 244.696L408.157 244.454ZM406.274 247.87L406.516 247.432L404.939 246.563L404.698 247.001L404.456 247.439L406.033 248.308L406.274 247.87ZM404.698 247.001L405.136 247.242L408.515 241.112L408.077 240.871L407.639 240.629L404.26 246.76L404.698 247.001ZM408.077 240.871L407.836 241.308L409.499 242.226L409.741 241.788L409.982 241.35L408.318 240.433L408.077 240.871ZM409.741 241.788L409.241 241.784L409.206 245.989L409.706 245.994L410.206 245.998L410.241 241.792L409.741 241.788ZM409.706 245.994L409.977 246.414L413.514 244.139L413.244 243.719L412.973 243.298L409.436 245.573L409.706 245.994ZM413.244 243.719L413.003 244.157L414.667 245.074L414.908 244.636L415.149 244.198L413.485 243.281L413.244 243.719ZM414.908 244.636L414.47 244.394L411.091 250.525L411.529 250.766L411.967 251.008L415.346 244.877L414.908 244.636ZM411.529 250.766L411.77 250.328L410.194 249.459L409.952 249.897L409.711 250.335L411.287 251.204L411.529 250.766ZM409.952 249.897L410.39 250.139L412.273 246.723L411.835 246.482L411.397 246.24L409.514 249.656L409.952 249.897ZM419.852 255.354L419.611 255.792L420.048 256.033L420.29 255.595L419.852 255.354ZM418.276 254.485L417.838 254.244L417.596 254.682L418.034 254.923L418.276 254.485ZM420.979 249.581L421.417 249.822L421.658 249.384L421.22 249.143L420.979 249.581ZM419.14 248.567L418.702 248.326L418.461 248.764L418.898 249.005L419.14 248.567ZM419.816 247.341L420.057 246.903L419.619 246.662L419.378 247.1L419.816 247.341ZM425.07 250.237L425.508 250.479L425.749 250.041L425.312 249.8L425.07 250.237ZM424.394 251.463L424.153 251.901L424.591 252.143L424.832 251.705L424.394 251.463ZM422.555 250.45L422.797 250.012L422.359 249.77L422.117 250.208L422.555 250.45ZM419.852 255.354L420.093 254.916L418.517 254.047L418.276 254.485L418.034 254.923L419.611 255.792L419.852 255.354ZM418.276 254.485L418.713 254.726L421.417 249.822L420.979 249.581L420.541 249.339L417.838 254.244L418.276 254.485ZM420.979 249.581L421.22 249.143L419.381 248.129L419.14 248.567L418.898 249.005L420.738 250.019L420.979 249.581ZM419.14 248.567L419.578 248.808L420.253 247.582L419.816 247.341L419.378 247.1L418.702 248.326L419.14 248.567ZM419.816 247.341L419.574 247.779L424.829 250.675L425.07 250.237L425.312 249.8L420.057 246.903L419.816 247.341ZM425.07 250.237L424.632 249.996L423.956 251.222L424.394 251.463L424.832 251.705L425.508 250.479L425.07 250.237ZM424.394 251.463L424.636 251.026L422.797 250.012L422.555 250.45L422.314 250.888L424.153 251.901L424.394 251.463ZM422.555 250.45L422.117 250.208L419.414 255.113L419.852 255.354L420.29 255.595L422.993 250.691L422.555 250.45Z" fill="url(#paint10_linear_130_4641)" mask="url(#path-30-outside-1_130_4641)"/>
</g>
<path id="Vector 919" d="M390.269 234.646L462.2 277.613" stroke="url(#paint11_linear_130_4641)"/>
<path id="Vector 931" d="M390.269 234.646L462.2 277.613" stroke="url(#paint12_linear_130_4641)"/>
<g id="Vector 920">
<path d="M281.943 333.706C281.97 331.705 281.283 330.852 278.967 331.166C272.919 335.765 270.303 338.672 264.791 344.977C264.689 346.583 265.098 346.775 266.271 346.497C272.701 342.096 281.916 335.706 281.943 333.706Z" fill="white"/>
<path d="M270.162 316.545C268.547 316.602 267.731 316.748 267.142 318.005C267.735 322.936 268.396 325.868 269.468 331.039C273.336 328.328 275.36 326.707 278.074 323.152C275.421 320.107 273.607 318.747 270.162 316.545Z" fill="white"/>
<path d="M281.943 333.706C281.97 331.705 281.283 330.852 278.967 331.166C272.919 335.765 270.303 338.672 264.791 344.977C264.689 346.583 265.098 346.775 266.271 346.497C272.701 342.096 281.916 335.706 281.943 333.706Z" stroke="black"/>
<path d="M270.162 316.545C268.547 316.602 267.731 316.748 267.142 318.005C267.735 322.936 268.396 325.868 269.468 331.039C273.336 328.328 275.36 326.707 278.074 323.152C275.421 320.107 273.607 318.747 270.162 316.545Z" stroke="black"/>
</g>
<path id="Vector 921" d="M188.754 234.447C279.054 258.093 321.407 262.715 364.238 236.797C321.826 255.506 279.312 251.913 188.754 234.447Z" fill="black" stroke="black"/>
<path id="Vector 925" d="M127.119 244.124C122.692 244.612 120.746 244.529 117.113 244.49L118.351 246.851C118.743 247.985 119.221 249.616 120.006 252.529L131.005 252.676C134.599 248.944 135.216 246.501 127.119 244.124Z" fill="#D80000" stroke="black"/>
<path id="Vector 926" d="M117.113 244.49L114.667 240.457C119.558 239.97 122.29 239.946 127.166 240.625C127.844 241.91 127.805 242.618 127.119 244.124C123.317 244.458 121.098 244.49 117.113 244.49Z" fill="#D46504" stroke="black"/>
<path id="Vector 927" d="M112.431 295.432L99.925 295.765L119.506 252.523L130.998 253.177C135.352 248.896 134.897 246.859 128.119 244.137L128.166 240.638C139.204 242.324 145.08 243.589 153.57 247.978C134.927 257.57 126.021 268.326 112.431 295.432Z" fill="black" stroke="black"/>
<path id="Vector 928" d="M119.932 258.029L103.465 292.811L112.464 292.932L129.931 258.162L119.932 258.029Z" fill="#141414" stroke="black"/>
<g id="KALERA">
<mask id="path-40-outside-2_130_4641" maskUnits="userSpaceOnUse" x="397.849" y="310.732" width="27.7513" height="24.3289" fill="black">
<rect fill="white" x="397.849" y="310.732" width="27.7513" height="24.3289"/>
<path d="M400.369 316.143L399.535 315.457L402.203 312.214L403.037 312.9L401.989 314.174L402.406 314.517L404.177 313.838L405.057 314.562L402.834 315.413L402.384 317.801L401.504 317.077L401.872 315.166L401.455 314.823L400.369 316.143ZM403.847 319.005L402.944 318.262L406.84 316.029L407.767 316.791L406.326 321.045L405.423 320.301L405.691 319.551L404.532 318.598L403.847 319.005ZM405.236 318.167L405.978 318.777L406.503 317.383L405.236 318.167ZM408.528 321.768L410.219 323.16L409.685 323.808L407.16 321.731L409.828 318.487L410.662 319.173L408.528 321.768ZM413.185 326.687L410.613 324.572L413.281 321.328L415.853 323.444L415.319 324.093L413.582 322.663L413.067 323.289L414.434 324.413L413.9 325.062L412.533 323.937L411.981 324.609L413.718 326.039L413.185 326.687ZM416.825 324.243L418.771 325.845C419.095 326.111 419.269 326.379 419.292 326.646C419.321 326.914 419.202 327.209 418.935 327.534L418.592 327.951C418.381 328.207 418.174 328.371 417.971 328.442C417.77 328.515 417.558 328.499 417.335 328.393L417.076 329.888L416.172 329.145L416.44 327.734L415.791 327.2L414.991 328.173L414.156 327.487L416.825 324.243ZM418.101 326.847C418.254 326.662 418.237 326.493 418.052 326.341L417.125 325.578L416.325 326.551L417.251 327.314C417.437 327.466 417.606 327.45 417.758 327.264L418.101 326.847ZM418.673 331.203L417.769 330.459L421.666 328.226L422.592 328.988L421.152 333.242L420.248 332.499L420.516 331.748L419.358 330.795L418.673 331.203ZM420.062 330.364L420.803 330.974L421.328 329.58L420.062 330.364Z"/>
</mask>
<path d="M400.369 316.143L399.535 315.457L402.203 312.214L403.037 312.9L401.989 314.174L402.406 314.517L404.177 313.838L405.057 314.562L402.834 315.413L402.384 317.801L401.504 317.077L401.872 315.166L401.455 314.823L400.369 316.143ZM403.847 319.005L402.944 318.262L406.84 316.029L407.767 316.791L406.326 321.045L405.423 320.301L405.691 319.551L404.532 318.598L403.847 319.005ZM405.236 318.167L405.978 318.777L406.503 317.383L405.236 318.167ZM408.528 321.768L410.219 323.16L409.685 323.808L407.16 321.731L409.828 318.487L410.662 319.173L408.528 321.768ZM413.185 326.687L410.613 324.572L413.281 321.328L415.853 323.444L415.319 324.093L413.582 322.663L413.067 323.289L414.434 324.413L413.9 325.062L412.533 323.937L411.981 324.609L413.718 326.039L413.185 326.687ZM416.825 324.243L418.771 325.845C419.095 326.111 419.269 326.379 419.292 326.646C419.321 326.914 419.202 327.209 418.935 327.534L418.592 327.951C418.381 328.207 418.174 328.371 417.971 328.442C417.77 328.515 417.558 328.499 417.335 328.393L417.076 329.888L416.172 329.145L416.44 327.734L415.791 327.2L414.991 328.173L414.156 327.487L416.825 324.243ZM418.101 326.847C418.254 326.662 418.237 326.493 418.052 326.341L417.125 325.578L416.325 326.551L417.251 327.314C417.437 327.466 417.606 327.45 417.758 327.264L418.101 326.847ZM418.673 331.203L417.769 330.459L421.666 328.226L422.592 328.988L421.152 333.242L420.248 332.499L420.516 331.748L419.358 330.795L418.673 331.203ZM420.062 330.364L420.803 330.974L421.328 329.58L420.062 330.364Z" fill="url(#paint13_linear_130_4641)"/>
<path d="M400.369 316.143L400.051 316.529L400.437 316.847L400.755 316.461L400.369 316.143ZM399.535 315.457L399.149 315.139L398.831 315.526L399.217 315.843L399.535 315.457ZM402.203 312.214L402.521 311.828L402.135 311.51L401.817 311.896L402.203 312.214ZM403.037 312.9L403.423 313.218L403.741 312.831L403.355 312.514L403.037 312.9ZM401.989 314.174L401.603 313.856L401.285 314.242L401.671 314.56L401.989 314.174ZM402.406 314.517L402.088 314.903L402.313 315.088L402.585 314.984L402.406 314.517ZM404.177 313.838L404.495 313.452L404.27 313.266L403.998 313.371L404.177 313.838ZM405.057 314.562L405.236 315.029L406.038 314.722L405.375 314.176L405.057 314.562ZM402.834 315.413L402.655 314.946L402.394 315.046L402.343 315.321L402.834 315.413ZM402.384 317.801L402.067 318.188L402.719 318.725L402.876 317.894L402.384 317.801ZM401.504 317.077L401.013 316.983L400.957 317.274L401.186 317.463L401.504 317.077ZM401.872 315.166L402.363 315.26L402.419 314.969L402.19 314.78L401.872 315.166ZM401.455 314.823L401.773 314.437L401.387 314.119L401.069 314.505L401.455 314.823ZM400.369 316.143L400.686 315.757L399.852 315.071L399.535 315.457L399.217 315.843L400.051 316.529L400.369 316.143ZM399.535 315.457L399.921 315.775L402.589 312.531L402.203 312.214L401.817 311.896L399.149 315.139L399.535 315.457ZM402.203 312.214L401.885 312.6L402.719 313.286L403.037 312.9L403.355 312.514L402.521 311.828L402.203 312.214ZM403.037 312.9L402.651 312.582L401.603 313.856L401.989 314.174L402.375 314.492L403.423 313.218L403.037 312.9ZM401.989 314.174L401.671 314.56L402.088 314.903L402.406 314.517L402.723 314.131L402.306 313.788L401.989 314.174ZM402.406 314.517L402.585 314.984L404.356 314.304L404.177 313.838L403.998 313.371L402.227 314.05L402.406 314.517ZM404.177 313.838L403.859 314.224L404.74 314.948L405.057 314.562L405.375 314.176L404.495 313.452L404.177 313.838ZM405.057 314.562L404.878 314.095L402.655 314.946L402.834 315.413L403.013 315.88L405.236 315.029L405.057 314.562ZM402.834 315.413L402.343 315.321L401.893 317.709L402.384 317.801L402.876 317.894L403.325 315.506L402.834 315.413ZM402.384 317.801L402.702 317.415L401.822 316.691L401.504 317.077L401.186 317.463L402.067 318.188L402.384 317.801ZM401.504 317.077L401.995 317.172L402.363 315.26L401.872 315.166L401.381 315.071L401.013 316.983L401.504 317.077ZM401.872 315.166L402.19 314.78L401.773 314.437L401.455 314.823L401.137 315.209L401.554 315.552L401.872 315.166ZM401.455 314.823L401.069 314.505L399.983 315.826L400.369 316.143L400.755 316.461L401.841 315.14L401.455 314.823ZM403.847 319.005L403.53 319.391L403.801 319.615L404.103 319.435L403.847 319.005ZM402.944 318.262L402.695 317.828L402.067 318.188L402.626 318.648L402.944 318.262ZM406.84 316.029L407.158 315.643L406.891 315.423L406.591 315.595L406.84 316.029ZM407.767 316.791L408.24 316.951L408.351 316.624L408.084 316.405L407.767 316.791ZM406.326 321.045L406.009 321.431L406.568 321.891L406.8 321.205L406.326 321.045ZM405.423 320.301L404.952 320.133L404.834 320.464L405.105 320.687L405.423 320.301ZM405.691 319.551L406.162 319.719L406.28 319.388L406.008 319.164L405.691 319.551ZM404.532 318.598L404.85 318.211L404.579 317.988L404.277 318.168L404.532 318.598ZM405.236 318.167L404.973 317.742L404.379 318.109L404.919 318.553L405.236 318.167ZM405.978 318.777L405.66 319.163L406.199 319.607L406.446 318.953L405.978 318.777ZM406.503 317.383L406.971 317.559L407.489 316.185L406.24 316.958L406.503 317.383ZM403.847 319.005L404.165 318.619L403.262 317.876L402.944 318.262L402.626 318.648L403.53 319.391L403.847 319.005ZM402.944 318.262L403.192 318.696L407.089 316.462L406.84 316.029L406.591 315.595L402.695 317.828L402.944 318.262ZM406.84 316.029L406.522 316.415L407.449 317.177L407.767 316.791L408.084 316.405L407.158 315.643L406.84 316.029ZM407.767 316.791L407.293 316.631L405.853 320.884L406.326 321.045L406.8 321.205L408.24 316.951L407.767 316.791ZM406.326 321.045L406.644 320.659L405.74 319.915L405.423 320.301L405.105 320.687L406.009 321.431L406.326 321.045ZM405.423 320.301L405.894 320.469L406.162 319.719L405.691 319.551L405.22 319.383L404.952 320.133L405.423 320.301ZM405.691 319.551L406.008 319.164L404.85 318.211L404.532 318.598L404.215 318.984L405.373 319.937L405.691 319.551ZM404.532 318.598L404.277 318.168L403.592 318.576L403.847 319.005L404.103 319.435L404.788 319.027L404.532 318.598ZM405.236 318.167L404.919 318.553L405.66 319.163L405.978 318.777L406.295 318.391L405.554 317.781L405.236 318.167ZM405.978 318.777L406.446 318.953L406.971 317.559L406.503 317.383L406.035 317.207L405.51 318.6L405.978 318.777ZM406.503 317.383L406.24 316.958L404.973 317.742L405.236 318.167L405.5 318.592L406.766 317.808L406.503 317.383ZM408.528 321.768L408.142 321.451L407.824 321.837L408.21 322.154L408.528 321.768ZM410.219 323.16L410.605 323.477L410.923 323.091L410.537 322.773L410.219 323.16ZM409.685 323.808L409.368 324.194L409.754 324.512L410.071 324.126L409.685 323.808ZM407.16 321.731L406.774 321.413L406.456 321.799L406.842 322.117L407.16 321.731ZM409.828 318.487L410.146 318.101L409.76 317.784L409.442 318.17L409.828 318.487ZM410.662 319.173L411.049 319.491L411.366 319.105L410.98 318.787L410.662 319.173ZM408.528 321.768L408.21 322.154L409.901 323.546L410.219 323.16L410.537 322.773L408.845 321.382L408.528 321.768ZM410.219 323.16L409.833 322.842L409.299 323.491L409.685 323.808L410.071 324.126L410.605 323.477L410.219 323.16ZM409.685 323.808L410.003 323.422L407.478 321.345L407.16 321.731L406.842 322.117L409.368 324.194L409.685 323.808ZM407.16 321.731L407.546 322.048L410.215 318.805L409.828 318.487L409.442 318.17L406.774 321.413L407.16 321.731ZM409.828 318.487L409.511 318.873L410.345 319.56L410.662 319.173L410.98 318.787L410.146 318.101L409.828 318.487ZM410.662 319.173L410.276 318.856L408.142 321.451L408.528 321.768L408.914 322.086L411.049 319.491L410.662 319.173ZM413.185 326.687L412.867 327.073L413.253 327.391L413.571 327.005L413.185 326.687ZM410.613 324.572L410.227 324.254L409.909 324.64L410.295 324.958L410.613 324.572ZM413.281 321.328L413.599 320.942L413.213 320.624L412.895 321.01L413.281 321.328ZM415.853 323.444L416.239 323.762L416.557 323.375L416.171 323.058L415.853 323.444ZM415.319 324.093L415.002 324.479L415.388 324.796L415.705 324.41L415.319 324.093ZM413.582 322.663L413.899 322.277L413.513 321.959L413.196 322.345L413.582 322.663ZM413.067 323.289L412.681 322.971L412.363 323.357L412.749 323.675L413.067 323.289ZM414.434 324.413L414.82 324.731L415.138 324.345L414.752 324.027L414.434 324.413ZM413.9 325.062L413.583 325.448L413.969 325.766L414.286 325.379L413.9 325.062ZM412.533 323.937L412.851 323.551L412.465 323.233L412.147 323.62L412.533 323.937ZM411.981 324.609L411.595 324.291L411.277 324.677L411.663 324.995L411.981 324.609ZM413.718 326.039L414.104 326.356L414.422 325.97L414.036 325.652L413.718 326.039ZM413.185 326.687L413.502 326.301L410.931 324.185L410.613 324.572L410.295 324.958L412.867 327.073L413.185 326.687ZM410.613 324.572L410.999 324.889L413.668 321.646L413.281 321.328L412.895 321.01L410.227 324.254L410.613 324.572ZM413.281 321.328L412.964 321.714L415.535 323.83L415.853 323.444L416.171 323.058L413.599 320.942L413.281 321.328ZM415.853 323.444L415.467 323.126L414.933 323.775L415.319 324.093L415.705 324.41L416.239 323.762L415.853 323.444ZM415.319 324.093L415.637 323.706L413.899 322.277L413.582 322.663L413.264 323.049L415.002 324.479L415.319 324.093ZM413.582 322.663L413.196 322.345L412.681 322.971L413.067 323.289L413.453 323.606L413.968 322.981L413.582 322.663ZM413.067 323.289L412.749 323.675L414.116 324.799L414.434 324.413L414.752 324.027L413.385 322.902L413.067 323.289ZM414.434 324.413L414.048 324.095L413.514 324.744L413.9 325.062L414.286 325.379L414.82 324.731L414.434 324.413ZM413.9 325.062L414.218 324.676L412.851 323.551L412.533 323.937L412.216 324.323L413.583 325.448L413.9 325.062ZM412.533 323.937L412.147 323.62L411.595 324.291L411.981 324.609L412.367 324.927L412.92 324.255L412.533 323.937ZM411.981 324.609L411.663 324.995L413.401 326.425L413.718 326.039L414.036 325.652L412.298 324.223L411.981 324.609ZM413.718 326.039L413.332 325.721L412.798 326.37L413.185 326.687L413.571 327.005L414.104 326.356L413.718 326.039ZM416.825 324.243L417.143 323.857L416.756 323.54L416.439 323.926L416.825 324.243ZM419.292 326.646L418.794 326.69L418.795 326.7L419.292 326.646ZM417.971 328.442L417.806 327.969L417.798 327.972L417.971 328.442ZM417.335 328.393L417.55 327.941L416.955 327.658L416.842 328.307L417.335 328.393ZM417.076 329.888L416.758 330.275L417.421 330.82L417.568 329.974L417.076 329.888ZM416.172 329.145L415.681 329.052L415.626 329.343L415.854 329.531L416.172 329.145ZM416.44 327.734L416.931 327.827L416.986 327.536L416.757 327.348L416.44 327.734ZM415.791 327.2L416.109 326.814L415.723 326.496L415.405 326.882L415.791 327.2ZM414.991 328.173L414.673 328.559L415.059 328.877L415.377 328.491L414.991 328.173ZM414.156 327.487L413.77 327.169L413.453 327.555L413.839 327.873L414.156 327.487ZM417.125 325.578L417.443 325.192L417.057 324.875L416.739 325.261L417.125 325.578ZM416.325 326.551L415.939 326.234L415.621 326.62L416.007 326.937L416.325 326.551ZM416.825 324.243L416.507 324.63L418.453 326.231L418.771 325.845L419.089 325.458L417.143 323.857L416.825 324.243ZM418.771 325.845L418.453 326.231C418.731 326.459 418.788 326.615 418.794 326.69L419.292 326.646L419.79 326.603C419.75 326.143 419.46 325.764 419.089 325.458L418.771 325.845ZM419.292 326.646L418.795 326.7C418.803 326.775 418.777 326.938 418.549 327.216L418.935 327.534L419.321 327.851C419.627 327.48 419.839 327.052 419.789 326.593L419.292 326.646ZM418.935 327.534L418.549 327.216L418.206 327.633L418.592 327.951L418.978 328.268L419.321 327.851L418.935 327.534ZM418.592 327.951L418.206 327.633C418.024 327.854 417.888 327.941 417.806 327.969L417.971 328.442L418.135 328.914C418.46 328.8 418.738 328.56 418.978 328.268L418.592 327.951ZM417.971 328.442L417.798 327.972C417.744 327.992 417.673 327.999 417.55 327.941L417.335 328.393L417.12 328.844C417.444 328.998 417.796 329.038 418.143 328.911L417.971 328.442ZM417.335 328.393L416.842 328.307L416.583 329.803L417.076 329.888L417.568 329.974L417.828 328.478L417.335 328.393ZM417.076 329.888L417.393 329.502L416.49 328.759L416.172 329.145L415.854 329.531L416.758 330.275L417.076 329.888ZM416.172 329.145L416.663 329.238L416.931 327.827L416.44 327.734L415.948 327.641L415.681 329.052L416.172 329.145ZM416.44 327.734L416.757 327.348L416.109 326.814L415.791 327.2L415.473 327.586L416.122 328.12L416.44 327.734ZM415.791 327.2L415.405 326.882L414.604 327.855L414.991 328.173L415.377 328.491L416.177 327.518L415.791 327.2ZM414.991 328.173L415.308 327.787L414.474 327.101L414.156 327.487L413.839 327.873L414.673 328.559L414.991 328.173ZM414.156 327.487L414.543 327.805L417.211 324.561L416.825 324.243L416.439 323.926L413.77 327.169L414.156 327.487ZM418.101 326.847L418.487 327.165C418.613 327.013 418.726 326.796 418.701 326.533C418.675 326.27 418.522 326.08 418.37 325.955L418.052 326.341L417.734 326.727C417.767 326.754 417.715 326.724 417.706 326.63C417.696 326.536 417.742 326.497 417.715 326.53L418.101 326.847ZM418.052 326.341L418.37 325.955L417.443 325.192L417.125 325.578L416.808 325.964L417.734 326.727L418.052 326.341ZM417.125 325.578L416.739 325.261L415.939 326.234L416.325 326.551L416.711 326.869L417.511 325.896L417.125 325.578ZM416.325 326.551L416.007 326.937L416.934 327.7L417.251 327.314L417.569 326.928L416.642 326.165L416.325 326.551ZM417.251 327.314L416.934 327.7C417.086 327.825 417.302 327.939 417.565 327.913C417.828 327.888 418.019 327.734 418.144 327.582L417.758 327.264L417.372 326.947C417.345 326.98 417.375 326.927 417.469 326.918C417.563 326.909 417.602 326.955 417.569 326.928L417.251 327.314ZM417.758 327.264L418.144 327.582L418.487 327.165L418.101 326.847L417.715 326.53L417.372 326.947L417.758 327.264ZM418.673 331.203L418.355 331.589L418.627 331.812L418.928 331.632L418.673 331.203ZM417.769 330.459L417.521 330.025L416.893 330.385L417.452 330.845L417.769 330.459ZM421.666 328.226L421.983 327.84L421.717 327.62L421.417 327.792L421.666 328.226ZM422.592 328.988L423.066 329.149L423.177 328.822L422.91 328.602L422.592 328.988ZM421.152 333.242L420.834 333.628L421.393 334.088L421.625 333.402L421.152 333.242ZM420.248 332.499L419.777 332.331L419.659 332.661L419.93 332.885L420.248 332.499ZM420.516 331.748L420.987 331.916L421.105 331.585L420.834 331.362L420.516 331.748ZM419.358 330.795L419.675 330.409L419.404 330.186L419.102 330.365L419.358 330.795ZM420.062 330.364L419.799 329.939L419.205 330.307L419.744 330.75L420.062 330.364ZM420.803 330.974L420.486 331.36L421.025 331.804L421.271 331.15L420.803 330.974ZM421.328 329.58L421.796 329.757L422.314 328.382L421.065 329.155L421.328 329.58ZM418.673 331.203L418.99 330.816L418.087 330.073L417.769 330.459L417.452 330.845L418.355 331.589L418.673 331.203ZM417.769 330.459L418.018 330.893L421.914 328.66L421.666 328.226L421.417 327.792L417.521 330.025L417.769 330.459ZM421.666 328.226L421.348 328.612L422.275 329.375L422.592 328.988L422.91 328.602L421.983 327.84L421.666 328.226ZM422.592 328.988L422.119 328.828L420.678 333.082L421.152 333.242L421.625 333.402L423.066 329.149L422.592 328.988ZM421.152 333.242L421.469 332.856L420.566 332.113L420.248 332.499L419.93 332.885L420.834 333.628L421.152 333.242ZM420.248 332.499L420.719 332.667L420.987 331.916L420.516 331.748L420.045 331.58L419.777 332.331L420.248 332.499ZM420.516 331.748L420.834 331.362L419.675 330.409L419.358 330.795L419.04 331.181L420.198 332.134L420.516 331.748ZM419.358 330.795L419.102 330.365L418.417 330.773L418.673 331.203L418.928 331.632L419.614 331.225L419.358 330.795ZM420.062 330.364L419.744 330.75L420.486 331.36L420.803 330.974L421.121 330.588L420.38 329.978L420.062 330.364ZM420.803 330.974L421.271 331.15L421.796 329.757L421.328 329.58L420.86 329.404L420.335 330.798L420.803 330.974ZM421.328 329.58L421.065 329.155L419.799 329.939L420.062 330.364L420.325 330.789L421.592 330.005L421.328 329.58Z" fill="black" mask="url(#path-40-outside-2_130_4641)"/>
</g>
<path id="Vector 932" d="M478.52 253.828C462.219 255.4 453.868 256.46 450.422 260.953L449.909 261.946L451.362 265.466L465.24 274.652C503.252 273.718 521.849 275.096 553.192 278.83L555.319 269.358C525.738 254.135 510.493 251.098 484.087 248.902L478.52 253.828Z" fill="black" stroke="black"/>
<path id="Vector 933" d="M484.093 248.403L478.527 253.329L454.31 232.003L448.925 223.43C445.183 206.021 444.971 197.694 445.954 183.887L457.033 178.035C477.028 200.863 481.898 216.797 484.093 248.403Z" fill="black" stroke="black"/>
<path id="Vector 908_3" d="M426.054 213.623L450.382 263.953L437.984 256.286C429.575 240.732 425.222 232.141 418.008 217.015L426.054 213.623Z" fill="#B2B2BA" stroke="black"/>
<path id="Vector 934" d="M429.466 220.17L449.902 262.447C453.466 256.891 458.449 254.758 475.52 253.789L453.283 233.99L446.905 224.903L445.978 219.391L442.452 221.344L437.013 216.77L429.466 220.17Z" fill="url(#paint14_linear_130_4641)" stroke="black"/>
<path id="Vector 935" d="M398.822 230.759L407.334 229.873L420.927 223.054L430.178 241.68L424.599 247.606L398.822 230.759Z" fill="black" stroke="black"/>
<path id="Vector 936" d="M365.245 236.311L364.097 247.297L398.322 230.754L407.341 229.374L414.887 225.975L388.39 225.62L365.245 236.311Z" fill="black" stroke="black"/>
<path id="Vector 937" d="M479.1 240.839C479.904 228.682 479.067 223.243 473.375 220.261C471.563 220.198 470.642 220.401 469.178 221.205C463.628 229.633 466.205 232.535 477.597 241.091C477.92 241.333 478.763 240.587 479.1 240.839Z" fill="url(#paint15_linear_130_4641)" stroke="black"/>
<path id="Vector 938" d="M469.537 169.234L467.024 170.199C468.511 171.219 469.435 171.869 468.977 173.726C470.827 172.442 471.49 172.106 472.017 170.762C471.016 169.39 470.478 169.108 469.537 169.234Z" fill="#585858" stroke="black"/>
<g id="Vector 939">
<path d="M461.469 174.197C459.997 172.176 463.057 167.717 468.502 171.791C470.462 174.817 466.748 177.948 463.943 176.229L465.963 174.756L463.476 173.723L461.469 174.197Z" fill="#585858"/>
<path d="M463.476 173.723C464.496 172.237 467.476 173.777 465.963 174.756M463.476 173.723L465.963 174.756M463.476 173.723L461.469 174.197C459.997 172.176 463.057 167.717 468.502 171.791C470.462 174.817 466.748 177.948 463.943 176.229L465.963 174.756" stroke="black"/>
</g>
<path id="Vector 940" d="M363.598 247.289L364.225 237.797C316.514 264.729 273.686 258.168 188.747 234.947L188.62 244.446L325.606 283.784L359.384 263.234L363.598 247.289Z" fill="#141414" stroke="black"/>
<circle id="Ellipse 164" cx="506.19" cy="390.712" r="2.5" transform="rotate(0.766998 506.19 390.712)" fill="#D9D9D9" stroke="black"/>
</g>
<circle id="Ellipse 163" cx="179.164" cy="389.986" r="2.5" fill="#D9D9D9" stroke="black"/>
<circle id="Ellipse 164_2" cx="506.164" cy="390.986" r="2.5" fill="#D9D9D9" stroke="black"/>
</g>
<defs>
<linearGradient id="paint0_linear_130_4641" x1="377.007" y1="304.696" x2="274.313" y2="230.594" gradientUnits="userSpaceOnUse">
<stop stop-color="#B2B2BA"/>
<stop offset="1" stop-color="#6C6C6C"/>
</linearGradient>
<linearGradient id="paint1_linear_130_4641" x1="377.007" y1="304.696" x2="274.313" y2="230.594" gradientUnits="userSpaceOnUse">
<stop stop-color="#B2B2BA"/>
<stop offset="1" stop-color="#6C6C6C"/>
</linearGradient>
<linearGradient id="paint2_linear_130_4641" x1="236.164" y1="210.986" x2="388.164" y2="372.486" gradientUnits="userSpaceOnUse">
<stop stop-color="#040404"/>
<stop offset="1" stop-color="#7B7B7B"/>
</linearGradient>
<linearGradient id="paint3_linear_130_4641" x1="371.215" y1="275.896" x2="422.8" y2="344.593" gradientUnits="userSpaceOnUse">
<stop stop-color="#B60421"/>
<stop offset="1" stop-color="#50020F"/>
</linearGradient>
<linearGradient id="paint4_linear_130_4641" x1="371.215" y1="275.896" x2="422.8" y2="344.593" gradientUnits="userSpaceOnUse">
<stop stop-color="#B60421"/>
<stop offset="1" stop-color="#50020F"/>
</linearGradient>
<linearGradient id="paint5_linear_130_4641" x1="371.215" y1="275.896" x2="422.8" y2="344.593" gradientUnits="userSpaceOnUse">
<stop stop-color="#B60421"/>
<stop offset="1" stop-color="#50020F"/>
</linearGradient>
<linearGradient id="paint6_linear_130_4641" x1="398.378" y1="245.255" x2="432.121" y2="320.713" gradientUnits="userSpaceOnUse">
<stop stop-color="#050505"/>
<stop offset="1" stop-color="#6B6B6B"/>
</linearGradient>
<linearGradient id="paint7_linear_130_4641" x1="387.024" y1="271.607" x2="410.476" y2="331.426" gradientUnits="userSpaceOnUse">
<stop stop-color="#0B0B0B"/>
<stop offset="1" stop-color="#717171"/>
</linearGradient>
<linearGradient id="paint8_linear_130_4641" x1="413.267" y1="234.953" x2="435.739" y2="349.264" gradientUnits="userSpaceOnUse">
<stop offset="0.246724" stop-color="white"/>
<stop offset="1" stop-color="#999999"/>
</linearGradient>
<linearGradient id="paint9_linear_130_4641" x1="407.562" y1="237.041" x2="404.891" y2="259.672" gradientUnits="userSpaceOnUse">
<stop/>
<stop offset="1" stop-color="#666666"/>
</linearGradient>
<linearGradient id="paint10_linear_130_4641" x1="415.733" y1="240.084" x2="407.297" y2="250.663" gradientUnits="userSpaceOnUse">
<stop stop-color="#DA1212"/>
<stop offset="1" stop-color="#720974"/>
</linearGradient>
<linearGradient id="paint11_linear_130_4641" x1="430.611" y1="246.688" x2="421.331" y2="267.565" gradientUnits="userSpaceOnUse">
<stop stop-color="#7E1D6D"/>
<stop offset="1" stop-color="#DC1515"/>
</linearGradient>
<linearGradient id="paint12_linear_130_4641" x1="430.611" y1="246.688" x2="421.331" y2="267.565" gradientUnits="userSpaceOnUse">
<stop stop-color="#7E1D6D"/>
<stop offset="1" stop-color="#DC1515"/>
</linearGradient>
<linearGradient id="paint13_linear_130_4641" x1="409.441" y1="316.297" x2="403.578" y2="328.895" gradientUnits="userSpaceOnUse">
<stop offset="1" stop-color="white"/>
</linearGradient>
<linearGradient id="paint14_linear_130_4641" x1="474.907" y1="262.282" x2="423.826" y2="230.595" gradientUnits="userSpaceOnUse">
<stop stop-color="#141414"/>
<stop offset="1"/>
</linearGradient>
<linearGradient id="paint15_linear_130_4641" x1="470.469" y1="220.218" x2="473.155" y2="243.756" gradientUnits="userSpaceOnUse">
<stop stop-color="white"/>
<stop offset="1" stop-color="#FFDF00"/>
</linearGradient>
</defs>
</svg>
