<svg width="193" height="192" viewBox="0 0 193 192" fill="none" xmlns="http://www.w3.org/2000/svg">
<g id="Wheel1">
<path id="Ellipse 147" d="M163.581 96.9487C163.086 133.948 132.69 163.541 95.6906 163.046C58.6908 162.55 29.0981 132.155 29.5935 95.1549C30.0888 58.1552 60.4846 28.5625 97.4843 29.0578C134.484 29.5532 164.077 59.9489 163.581 96.9487Z" fill="#3B3B39" stroke="black"/>
<circle id="Ellipse 146" cx="97.5873" cy="96.0662" r="60" transform="rotate(0.766998 97.5873 96.0662)" fill="#31312F" stroke="black"/>
<circle id="Ellipse 145" cx="97.0941" cy="95.5598" r="53.5" transform="rotate(0.766998 97.0941 95.5598)" fill="#312F30" stroke="black"/>
<circle id="Ellipse 143" cx="96.094" cy="95.5457" r="49.5" transform="rotate(0.766998 96.094 95.5457)" fill="#424041" stroke="black"/>
<circle id="Ellipse 144" cx="96.0942" cy="95.5468" r="46.5" transform="rotate(0.766998 96.0942 95.5468)" fill="white" stroke="black"/>
<path id="Ellipse 148" d="M157.609 94.8652C160.529 96.7887 162.266 99.6159 163.505 102.945M157.222 86.3584C160.382 88.4403 161.813 90.5883 163.618 94.4517M162.756 83.9338C160.137 80.8889 157.742 79.4824 155.323 78.8367M152.437 70.2943C156.204 71.2598 158.173 73.0779 160.856 76.4075M148.538 62.7406C151.878 63.0042 153.599 63.938 156.491 66.3474M143.132 55.6685C146.749 55.6487 148.826 56.7358 152.585 59.2954M137.213 49.5892C141.266 48.6171 143.229 49.4891 146.692 51.2163M130.78 44.5021C134.056 43.7237 136.238 44.1035 140.273 45.1292M122.835 40.3953C125.53 38.5951 127.49 38.3435 131.361 38.5092M113.876 37.2745C117.075 35.4274 119.328 34.9945 123.908 34.9086M105.903 35.168C107.948 32.5521 109.883 31.8194 114.456 31.2821M96.4041 35.0408C98.4363 32.0681 100.665 30.9927 105.977 29.6685M88.3981 35.4337C89.7647 32.4182 91.2652 31.1207 94.9846 29.0213M79.3721 37.3133C80.7473 33.9517 82.7878 32.2759 87.4785 29.4211M72.3325 40.2212C72.5391 37.0946 73.5713 35.1596 76.9461 31.7809M62.7664 45.093C62.9742 41.0207 63.9183 39.1492 66.3866 36.1407M56.7 50.0128C56.184 46.3836 56.7566 44.4445 58.3204 41.0337M50.1071 56.9255C49.6816 51.6998 50.5046 49.1569 52.7675 44.9592M45.0138 63.8579C43.9297 59.4578 44.202 57.0804 45.1611 52.8588M40.4137 71.2964C39.7075 65.7914 39.7234 63.1578 40.5743 59.2975M37.3003 79.756C35.1049 76.2837 34.9784 73.9432 34.9344 69.7234M35.68 88.7345C33.2268 86.5948 32.5246 83.9853 31.8209 78.1818M35.5662 97.2337C33.066 95.2497 31.9129 93.2643 30.1873 88.1608M36.4455 106.247C33.2056 104.447 31.6848 102.305 29.58 96.1541M38.3316 114.773C34.9884 113.129 33.2316 111.379 30.4327 107.167M40.7308 122.306C37.4821 121.346 35.6434 119.451 32.3319 114.693M45.6164 130.872C40.7888 129.776 38.8783 128.258 36.1979 124.745M50.5292 137.438C46.8041 136.361 44.4704 135.235 39.6105 131.291M56.4552 143.019C52.8832 143.071 50.7957 142.511 46.9828 140.892M64.8739 149.132C60.6048 149.52 57.9583 148.975 52.9017 146.972M71.8264 152.726C68.9071 154.043 66.7527 154.139 62.3139 153.598M81.2787 156.353C78.2997 158.097 76.6038 158.278 71.349 158.003M87.7581 157.939C86.3446 159.911 84.9638 160.823 81.2118 161.352M97.2505 158.567C96.03 160.758 94.5795 161.686 91.1908 162.986M106.27 157.187C105.032 159.811 103.928 161.161 100.69 163.113M114.796 155.301C113.583 157.869 112.637 159.326 108.203 162.213M122.835 152.408C122.269 155.238 120.806 156.896 117.235 159.834M130.895 148.016C130.27 151.045 129.251 152.871 125.781 156.448M137.474 142.103C137.802 144.64 136.928 146.514 133.848 151.556M144.061 135.691C144.3 139.356 143.521 141.546 140.921 146.15" stroke="black"/>
<path id="Ellipse 149" d="M156.218 113.482C157.403 116.406 157.973 118.161 158.614 121.637M158.279 104.538C160.086 108.096 160.656 110.174 161.099 114.132" stroke="black"/>
<path id="Vector 939" d="M149.161 128.259C149.81 130.881 149.859 133.654 149.034 137.758M153.261 120.813C154.497 123.75 154.922 125.979 153.621 131.319" stroke="black"/>
<path id="Ellipse 155" d="M142.686 95.9525C142.45 113.567 132.45 128.764 117.902 136.46C115.833 137.555 113.671 138.498 111.433 139.274C106.765 140.894 101.761 141.79 96.5575 141.829C96.2284 141.831 95.8986 141.83 95.5679 141.826C93.2142 141.794 90.9039 141.589 88.6492 141.221C66.2999 137.577 49.3823 118.033 49.6945 94.7076C50.0383 69.0286 71.1339 48.4904 96.8128 48.8342C122.492 49.178 143.03 70.2735 142.686 95.9525Z" stroke="black"/>
<path id="Ellipse 142" d="M49.6945 94.7076C50.0383 69.0286 71.1339 48.4904 96.8128 48.8342C122.492 49.178 143.03 70.2735 142.686 95.9525C142.45 113.567 132.45 128.764 117.902 136.46C115.835 137.553 113.677 138.495 111.442 139.271C105.92 140.974 102.749 141.697 96.5541 141.829C96.2261 141.831 95.8974 141.83 95.5679 141.826C93.2142 141.794 90.9039 141.589 88.6492 141.221C66.2999 137.577 49.3823 118.033 49.6945 94.7076Z" stroke="black"/>
<circle id="Ellipse 236" cx="96.1902" cy="95.3305" r="29.5" transform="rotate(0.766998 96.1902 95.3305)" fill="#8F8F8F" stroke="black"/>
<circle id="Ellipse 237" cx="88.8696" cy="119.234" r="0.875" transform="rotate(0.766998 88.8696 119.234)" fill="white" stroke="black" stroke-width="0.25"/>
<circle id="Ellipse 238" cx="93.646" cy="117.298" r="0.875" transform="rotate(0.766998 93.646 117.298)" fill="white" stroke="black" stroke-width="0.25"/>
<circle id="Ellipse 239" cx="92.8425" cy="121.289" r="0.875" transform="rotate(0.766998 92.8425 121.289)" fill="white" stroke="black" stroke-width="0.25"/>
<circle id="Ellipse 240" cx="97.8689" cy="119.355" r="0.875" transform="rotate(0.766998 97.8689 119.355)" fill="white" stroke="black" stroke-width="0.25"/>
<circle id="Ellipse 241" cx="101.855" cy="120.408" r="0.875" transform="rotate(0.766998 101.855 120.408)" fill="white" stroke="black" stroke-width="0.25"/>
<circle id="Ellipse 242" cx="106.868" cy="119.476" r="0.875" transform="rotate(0.766998 106.868 119.476)" fill="white" stroke="black" stroke-width="0.25"/>
<circle id="Ellipse 243" cx="104.922" cy="115.449" r="0.875" transform="rotate(0.766998 104.922 115.449)" fill="white" stroke="black" stroke-width="0.25"/>
<circle id="Ellipse 244" cx="109.921" cy="115.515" r="0.875" transform="rotate(0.766998 109.921 115.515)" fill="white" stroke="black" stroke-width="0.25"/>
<circle id="Ellipse 245" cx="113.948" cy="113.57" r="0.875" transform="rotate(0.766998 113.948 113.57)" fill="white" stroke="black" stroke-width="0.25"/>
<circle id="Ellipse 246" cx="117.974" cy="111.623" r="0.875" transform="rotate(0.766998 117.974 111.623)" fill="white" stroke="black" stroke-width="0.25"/>
<circle id="Ellipse 247" cx="114.015" cy="108.57" r="0.875" transform="rotate(0.766998 114.015 108.57)" fill="white" stroke="black" stroke-width="0.25"/>
<circle id="Ellipse 248" cx="118.041" cy="106.625" r="0.875" transform="rotate(0.766998 118.041 106.625)" fill="white" stroke="black" stroke-width="0.25"/>
<circle id="Ellipse 249" cx="120.094" cy="102.652" r="0.875" transform="rotate(0.766998 120.094 102.652)" fill="white" stroke="black" stroke-width="0.25"/>
<circle id="Ellipse 250" cx="122.148" cy="98.6774" r="0.875" transform="rotate(0.766998 122.148 98.6774)" fill="white" stroke="black" stroke-width="0.25"/>
<circle id="Ellipse 251" cx="118.162" cy="97.6246" r="0.875" transform="rotate(0.766998 118.162 97.6246)" fill="white" stroke="black" stroke-width="0.25"/>
<circle id="Ellipse 252" cx="120.215" cy="93.652" r="0.875" transform="rotate(0.766998 120.215 93.652)" fill="white" stroke="black" stroke-width="0.25"/>
<circle id="Ellipse 253" cx="120.269" cy="89.652" r="0.875" transform="rotate(0.766998 120.269 89.652)" fill="white" stroke="black" stroke-width="0.25"/>
<circle id="Ellipse 254" cx="117.309" cy="86.6129" r="0.875" transform="rotate(0.766998 117.309 86.6129)" fill="white" stroke="black" stroke-width="0.25"/>
<circle id="Ellipse 255" cx="120.335" cy="84.652" r="0.875" transform="rotate(0.766998 120.335 84.652)" fill="white" stroke="black" stroke-width="0.25"/>
<circle id="Ellipse 256" cx="116.363" cy="82.5992" r="0.875" transform="rotate(0.766998 116.363 82.5992)" fill="white" stroke="black" stroke-width="0.25"/>
<circle id="Ellipse 257" cx="114.43" cy="77.5738" r="0.875" transform="rotate(0.766998 114.43 77.5738)" fill="white" stroke="black" stroke-width="0.25"/>
<circle id="Ellipse 258" cx="109.43" cy="77.5055" r="0.875" transform="rotate(0.766998 109.43 77.5055)" fill="white" stroke="black" stroke-width="0.25"/>
<circle id="Ellipse 259" cx="112.47" cy="74.5465" r="0.875" transform="rotate(0.766998 112.47 74.5465)" fill="white" stroke="black" stroke-width="0.25"/>
<circle id="Ellipse 260" cx="106.47" cy="74.4664" r="0.875" transform="rotate(0.766998 106.47 74.4664)" fill="white" stroke="black" stroke-width="0.25"/>
<circle id="Ellipse 261" cx="103.511" cy="71.4254" r="0.875" transform="rotate(0.766998 103.511 71.4254)" fill="white" stroke="black" stroke-width="0.25"/>
<circle id="Ellipse 262" cx="99.5515" cy="68.3727" r="0.875" transform="rotate(0.766998 99.5515 68.3727)" fill="white" stroke="black" stroke-width="0.25"/>
<circle id="Ellipse 263" cx="99.4846" cy="73.3727" r="0.875" transform="rotate(0.766998 99.4846 73.3727)" fill="white" stroke="black" stroke-width="0.25"/>
<circle id="Ellipse 264" cx="95.5117" cy="71.3199" r="0.875" transform="rotate(0.766998 95.5117 71.3199)" fill="white" stroke="black" stroke-width="0.25"/>
<circle id="Ellipse 265" cx="90.5256" cy="70.2516" r="0.875" transform="rotate(0.766998 90.5256 70.2516)" fill="white" stroke="black" stroke-width="0.25"/>
<circle id="Ellipse 266" cx="85.5126" cy="71.1852" r="0.875" transform="rotate(0.766998 85.5126 71.1852)" fill="white" stroke="black" stroke-width="0.25"/>
<circle id="Ellipse 267" cx="87.4589" cy="75.2125" r="0.875" transform="rotate(0.766998 87.4589 75.2125)" fill="white" stroke="black" stroke-width="0.25"/>
<circle id="Ellipse 268" cx="83.4592" cy="75.1578" r="0.875" transform="rotate(0.766998 83.4592 75.1578)" fill="white" stroke="black" stroke-width="0.25"/>
<circle id="Ellipse 269" cx="79.4328" cy="77.1051" r="0.875" transform="rotate(0.766998 79.4328 77.1051)" fill="white" stroke="black" stroke-width="0.25"/>
<circle id="Ellipse 270" cx="75.4064" cy="79.0504" r="0.875" transform="rotate(0.766998 75.4064 79.0504)" fill="white" stroke="black" stroke-width="0.25"/>
<circle id="Ellipse 271" cx="78.3659" cy="82.0914" r="0.875" transform="rotate(0.766998 78.3659 82.0914)" fill="white" stroke="black" stroke-width="0.25"/>
<circle id="Ellipse 272" cx="75.3261" cy="85.0504" r="0.875" transform="rotate(0.766998 75.3261 85.0504)" fill="white" stroke="black" stroke-width="0.25"/>
<circle id="Ellipse 273" cx="72.2861" cy="88.0094" r="0.875" transform="rotate(0.766998 72.2861 88.0094)" fill="white" stroke="black" stroke-width="0.25"/>
<circle id="Ellipse 274" cx="74.2324" cy="92.0367" r="0.875" transform="rotate(0.766998 74.2324 92.0367)" fill="white" stroke="black" stroke-width="0.25"/>
<circle id="Ellipse 275" cx="69.2329" cy="91.9684" r="0.875" transform="rotate(0.766998 69.2329 91.9684)" fill="white" stroke="black" stroke-width="0.25"/>
<circle id="Ellipse 276" cx="72.1792" cy="96.0094" r="0.875" transform="rotate(0.766998 72.1792 96.0094)" fill="white" stroke="black" stroke-width="0.25"/>
<circle id="Ellipse 277" cx="71.1123" cy="100.996" r="0.875" transform="rotate(0.766998 71.1123 100.996)" fill="white" stroke="black" stroke-width="0.25"/>
<circle id="Ellipse 278" cx="72.0451" cy="106.007" r="0.875" transform="rotate(0.766998 72.0451 106.007)" fill="white" stroke="black" stroke-width="0.25"/>
<circle id="Ellipse 279" cx="75.0717" cy="104.048" r="0.875" transform="rotate(0.766998 75.0717 104.048)" fill="white" stroke="black" stroke-width="0.25"/>
<circle id="Ellipse 280" cx="76.0046" cy="109.062" r="0.875" transform="rotate(0.766998 76.0046 109.062)" fill="white" stroke="black" stroke-width="0.25"/>
<circle id="Ellipse 281" cx="77.9643" cy="112.088" r="0.875" transform="rotate(0.766998 77.9643 112.088)" fill="white" stroke="black" stroke-width="0.25"/>
<circle id="Ellipse 282" cx="82.9504" cy="113.154" r="0.875" transform="rotate(0.766998 82.9504 113.154)" fill="white" stroke="black" stroke-width="0.25"/>
<circle id="Ellipse 283" cx="79.9106" cy="116.115" r="0.875" transform="rotate(0.766998 79.9106 116.115)" fill="white" stroke="black" stroke-width="0.25"/>
<circle id="Ellipse 284" cx="85.9101" cy="116.195" r="0.875" transform="rotate(0.766998 85.9101 116.195)" fill="white" stroke="black" stroke-width="0.25"/>
<circle id="Ellipse 285" cx="95.0432" cy="106.316" r="0.875" transform="rotate(0.766998 95.0432 106.316)" fill="white" stroke="black" stroke-width="0.25"/>
<circle id="Ellipse 286" cx="105.109" cy="101.451" r="0.875" transform="rotate(0.766998 105.109 101.451)" fill="white" stroke="black" stroke-width="0.25"/>
<circle id="Ellipse 287" cx="106.256" cy="90.4645" r="0.875" transform="rotate(0.766998 106.256 90.4645)" fill="white" stroke="black" stroke-width="0.25"/>
<circle id="Ellipse 288" cx="97.3374" cy="84.3453" r="0.875" transform="rotate(0.766998 97.3374 84.3453)" fill="white" stroke="black" stroke-width="0.25"/>
<circle id="Ellipse 289" cx="87.2714" cy="89.2106" r="0.875" transform="rotate(0.766998 87.2714 89.2106)" fill="white" stroke="black" stroke-width="0.25"/>
<circle id="Ellipse 290" cx="86.1376" cy="99.1969" r="0.875" transform="rotate(0.766998 86.1376 99.1969)" fill="white" stroke="black" stroke-width="0.25"/>
<g id="Vector 955">
<path d="M85.9636 112.195L86.9635 112.208C84.7141 108.157 84.1525 105.836 83.6043 101.662L82.5592 101.793C81.0144 106.749 81.0311 109.287 85.9636 112.195Z" fill="white"/>
<path d="M82.6044 101.649C82.5892 101.697 82.5742 101.745 82.5592 101.793M82.5592 101.793C81.0144 106.749 81.0311 109.287 85.9636 112.195L86.9635 112.208C84.7141 108.157 84.1525 105.836 83.6043 101.662L82.5592 101.793Z" stroke="black" stroke-width="0.5"/>
</g>
<g id="Vector 956">
<path d="M95.7295 115.253L96.5996 114.76C92.6137 112.398 90.9574 110.677 88.3782 107.35L87.5419 107.991C88.7087 113.049 90.0039 115.232 95.7295 115.253Z" fill="white"/>
<path d="M87.5081 107.843C87.5194 107.893 87.5306 107.942 87.5419 107.991M87.5419 107.991C88.7087 113.049 90.0039 115.232 95.7295 115.253L96.5996 114.76C92.6137 112.398 90.9574 110.677 88.3782 107.35L87.5419 107.991Z" stroke="black" stroke-width="0.5"/>
</g>
<g id="Vector 957">
<path d="M105.331 112.498L105.842 111.638C101.209 111.565 98.9174 110.893 95.027 109.285L94.6188 110.256C98.142 114.068 100.35 115.32 105.331 112.498Z" fill="white"/>
<path d="M94.5164 110.145C94.5506 110.182 94.5848 110.219 94.6188 110.256M94.6188 110.256C98.142 114.068 100.35 115.32 105.331 112.498L105.842 111.638C101.209 111.565 98.9174 110.893 95.027 109.285L94.6188 110.256Z" stroke="black" stroke-width="0.5"/>
</g>
<g id="Vector 958">
<path d="M112.925 105.415L112.973 104.416C108.846 106.522 106.506 107.002 102.316 107.403L102.41 108.452C107.308 110.17 109.846 110.242 112.925 105.415Z" fill="white"/>
<path d="M102.267 108.402C102.315 108.419 102.362 108.436 102.41 108.452M102.41 108.452C107.308 110.17 109.846 110.242 112.925 105.415L112.973 104.416C108.846 106.522 106.506 107.002 102.316 107.403L102.41 108.452Z" stroke="black" stroke-width="0.5"/>
</g>
<g id="Vector 959">
<path d="M109.014 103.672L108.084 103.304C111.706 100.414 113.109 98.4814 115.204 94.8302L116.121 95.349C115.663 100.52 114.682 102.861 109.014 103.672Z" fill="white"/>
<path d="M116.134 95.1984C116.13 95.2488 116.125 95.2991 116.121 95.349M116.121 95.349C115.663 100.52 114.682 102.861 109.014 103.672L108.084 103.304C111.706 100.414 113.109 98.4814 115.204 94.8302L116.121 95.349Z" stroke="black" stroke-width="0.5"/>
</g>
<g id="Vector 960">
<path d="M111.219 96.3993L110.223 96.4991C112.114 92.2692 112.473 89.9078 112.658 85.7022L113.71 85.7422C115.678 90.5457 115.881 93.076 111.219 96.3993Z" fill="white"/>
<path d="M113.653 85.6023C113.672 85.6492 113.691 85.6958 113.71 85.7422M113.71 85.7422C115.678 90.5457 115.881 93.076 111.219 96.3993L110.223 96.4991C112.114 92.2692 112.473 89.9078 112.658 85.7022L113.71 85.7422Z" stroke="black" stroke-width="0.5"/>
</g>
<g id="Vector 961">
<path d="M109.863 88.3473L109.094 88.9864C108.297 84.4223 107.274 82.2639 105.076 78.6734L105.971 78.1182C110.288 81.0008 111.871 82.9852 109.863 88.3473Z" fill="white"/>
<path d="M105.845 78.0344C105.888 78.0624 105.93 78.0904 105.971 78.1182M105.971 78.1182C110.288 81.0008 111.871 82.9852 109.863 88.3473L109.094 88.9864C108.297 84.4223 107.274 82.2639 105.076 78.6734L105.971 78.1182Z" stroke="black" stroke-width="0.5"/>
</g>
<g id="Vector 962">
<path d="M104.467 82.4588L104.078 83.38C101.271 79.6944 99.3695 78.2484 95.7663 76.0715L96.3056 75.1668C101.465 75.7403 103.783 76.7741 104.467 82.4588Z" fill="white"/>
<path d="M96.1553 75.1503C96.2056 75.1558 96.2557 75.1613 96.3056 75.1668M96.3056 75.1668C101.465 75.7403 103.783 76.7741 104.467 82.4588L104.078 83.38C101.271 79.6944 99.3695 78.2484 95.7663 76.0715L96.3056 75.1668Z" stroke="black" stroke-width="0.5"/>
</g>
<g id="Vector 963">
<path d="M97.4832 79.6741L97.6361 80.6623C93.3111 79.0008 90.9339 78.769 86.7243 78.8093L86.708 77.7562C91.3993 75.5342 93.9151 75.1962 97.4832 79.6741Z" fill="white"/>
<path d="M86.5714 77.8211C86.6171 77.7993 86.6626 77.7777 86.708 77.7562M86.708 77.7562C91.3993 75.5342 93.9151 75.1962 97.4832 79.6741L97.6361 80.6623C93.3111 79.0008 90.9339 78.769 86.7243 78.8093L86.708 77.7562Z" stroke="black" stroke-width="0.5"/>
</g>
<g id="Vector 964">
<path d="M89.1611 81.8288L89.7719 82.6205C85.1819 83.2522 82.9879 84.1961 79.3203 86.2626L78.7978 85.3481C81.8348 81.1382 83.8752 79.6283 89.1611 81.8288Z" fill="white"/>
<path d="M78.7095 85.4709C78.739 85.4297 78.7685 85.3888 78.7978 85.3481M78.7978 85.3481C81.8348 81.1382 83.8752 79.6283 89.1611 81.8288L89.7719 82.6205C85.1819 83.2522 82.9879 84.1961 79.3203 86.2626L78.7978 85.3481Z" stroke="black" stroke-width="0.5"/>
</g>
<g id="Vector 965">
<path d="M84.6561 86.9997L85.56 87.4275C81.7583 90.0758 80.2328 91.9136 77.9047 95.421L77.0237 94.8438C77.8161 89.7136 78.9476 87.4414 84.6561 86.9997Z" fill="white"/>
<path d="M77.0008 94.9932C77.0084 94.9432 77.0161 94.8933 77.0237 94.8438M77.0237 94.8438C77.8161 89.7136 78.9476 87.4414 84.6561 86.9997L85.56 87.4275C81.7583 90.0758 80.2328 91.9136 77.9047 95.421L77.0237 94.8438Z" stroke="black" stroke-width="0.5"/>
</g>
<g id="Vector 966">
<path d="M81.5801 94.2079L82.5783 94.1476C80.5212 98.2991 80.069 100.644 79.717 104.839L78.667 104.758C76.8916 99.8797 76.7893 97.3434 81.5801 94.2079Z" fill="white"/>
<path d="M78.7189 104.9C78.7014 104.852 78.6841 104.805 78.667 104.758M78.667 104.758C76.8916 99.8797 76.7893 97.3434 81.5801 94.2079L82.5783 94.1476C80.5212 98.2991 80.069 100.644 79.717 104.839L78.667 104.758Z" stroke="black" stroke-width="0.5"/>
</g>
<path id="Vector 967" d="M88.0974 102.224C88.2107 101.058 88.4217 100.468 89.6307 99.7447L89.1642 97.2382C87.4843 97.2834 86.702 97.0811 85.6779 96.1914L85.7181 93.1917C86.5954 91.3562 87.5869 91.244 89.7378 91.7454L90.7645 89.759C90.1141 88.5289 89.7512 87.8348 90.3047 86.7525L92.8246 85.2861C95.098 84.8902 95.5415 85.6984 95.7908 87.8261L98.2906 87.8595C98.7893 86.58 99.2292 86.0421 100.817 85.8932L103.79 87.9332C104.251 89.2783 103.872 89.8936 102.75 90.9195L103.217 93.426C104.662 93.1888 105.355 93.2706 106.21 93.9661L106.156 97.9657C105.734 99.1469 105.015 99.3084 103.143 98.9255L101.61 101.405C102.377 102.158 102.513 102.678 102.076 103.912L98.5563 105.365C97.0346 104.558 96.6 104.006 96.5899 102.838L94.0902 102.805C93.7308 103.711 93.4532 104.199 92.0636 104.778L88.0974 102.224Z" fill="white" stroke="black" stroke-width="0.5"/>
<path id="Ellipse 156" d="M122.049 102.524L121.785 102.54L121.65 102.768C121.039 103.801 120.758 104.455 120.495 105.761L120.441 106.026L120.634 106.216L132.375 117.798L132.399 117.822L132.426 117.842C133.173 118.403 133.84 118.727 134.59 118.842C135.027 118.908 135.475 118.902 135.962 118.846C135.058 120.371 134.081 121.825 133.038 123.207C133.04 122.71 133.003 122.258 132.92 121.825C132.752 120.951 132.404 120.193 131.881 119.335L131.852 119.286L131.812 119.246L118.427 105.531L118.347 105.448L118.239 105.409L108.806 102.015C110.021 100.291 110.53 99.1503 110.973 97.5218L120.246 101.352L120.358 101.398L120.478 101.388L139.419 99.8019L139.443 99.7998L139.468 99.7953C140.352 99.6321 141.029 99.377 141.644 98.9242C141.895 98.739 142.131 98.5247 142.363 98.2785C142.262 99.7921 142.086 101.306 141.834 102.814C141.549 102.551 141.267 102.327 140.963 102.14C140.411 101.8 139.815 101.598 139.048 101.471L138.992 101.462L138.935 101.466L122.049 102.524Z" fill="#242422" stroke="black"/>
<path id="Ellipse 157" d="M74.2127 110.756L74.4675 110.684L74.6701 110.855C75.5884 111.628 76.0698 112.152 76.7494 113.298L76.8872 113.53L76.7684 113.773L69.5131 128.584L69.4983 128.614L69.4796 128.642C68.9598 129.418 68.437 129.944 67.7669 130.3C67.3769 130.508 66.9514 130.65 66.4738 130.758C67.8304 131.899 69.233 132.948 70.6743 133.908C70.5076 133.44 70.3934 133 70.3289 132.565C70.1986 131.684 70.2769 130.854 70.4864 129.871L70.4983 129.815L70.5223 129.764L78.6245 112.397L78.6731 112.293L78.7624 112.22L86.5444 105.9C84.8281 104.675 83.9707 103.766 83.0145 102.376L75.5278 109.054L75.4374 109.135L75.3202 109.165L56.9192 113.925L56.8953 113.931L56.8708 113.935C55.9825 114.073 55.2589 114.056 54.529 113.832C54.2305 113.74 53.9374 113.615 53.6373 113.46C54.2328 114.855 54.8988 116.225 55.6348 117.565C55.8165 117.223 56.0089 116.919 56.2338 116.642C56.6427 116.138 57.1384 115.751 57.8211 115.378L57.8708 115.351L57.9254 115.336L74.2127 110.756Z" fill="#242422" stroke="black"/>
<path id="Ellipse 162" d="M97.7261 121.927L97.7983 121.672L98.0495 121.589C99.1886 121.21 99.8875 121.074 101.219 121.094L101.49 121.098L101.634 121.326L110.467 135.253L110.485 135.282L110.499 135.312C110.89 136.161 111.064 136.882 111.018 137.639C110.991 138.08 110.889 138.517 110.732 138.981C112.413 138.421 114.042 137.774 115.613 137.047C115.127 136.944 114.693 136.812 114.287 136.639C113.468 136.29 112.802 135.789 112.073 135.097L112.032 135.057L112.001 135.01L101.432 119.024L101.368 118.928L101.353 118.814L100.034 108.876C98.0921 109.699 96.869 109.955 95.1836 110.043L96.9632 119.916L96.9847 120.036L96.9492 120.151L91.3873 138.326L91.38 138.35L91.3705 138.372C91.0238 139.202 90.6309 139.81 90.0583 140.315C89.824 140.521 89.5646 140.706 89.275 140.88C90.7756 141.102 92.2921 141.251 93.8192 141.324C93.6226 140.99 93.4635 140.667 93.345 140.331C93.1296 139.719 93.0585 139.094 93.0975 138.317L93.1003 138.26L93.1158 138.206L97.7261 121.927Z" fill="#242422" stroke="black"/>
<path id="Ellipse 158" d="M72.1582 83.8523L72.3468 84.038L72.2992 84.2985C72.0833 85.4793 71.8665 86.1575 71.2086 87.3158L71.0752 87.5508L70.8056 87.5679L54.3463 88.6131L54.3127 88.6152L54.2791 88.6128C53.3472 88.5465 52.6314 88.3532 51.9897 87.948C51.6162 87.7122 51.2819 87.4131 50.9511 87.052C50.6334 88.7958 50.4174 90.5344 50.2989 92.2619C50.6228 91.8849 50.9476 91.5678 51.294 91.2957C51.9943 90.7458 52.754 90.402 53.7112 90.0966L53.7654 90.0793L53.822 90.0747L72.9208 88.4974L73.0354 88.4879L73.1426 88.5295L82.49 92.1527C82.7029 90.0547 83.0669 88.8593 83.8003 87.3393L74.2879 84.1504L74.1731 84.1119L74.0886 84.0252L60.8296 70.4072L60.8124 70.3894L60.7969 70.3701C60.2365 69.6671 59.8925 69.0303 59.7252 68.2854C59.6568 67.9807 59.6196 67.6643 59.606 67.3265C58.6898 68.5356 57.8301 69.7936 57.0314 71.0972C57.4186 71.0854 57.7785 71.1014 58.1304 71.1594C58.7705 71.2647 59.3526 71.5031 60.0151 71.9109L60.0633 71.9407L60.1037 71.9805L72.1582 83.8523Z" fill="#242422" stroke="black"/>
<path id="Ellipse 159" d="M93.2559 68.4038L93.197 68.6619L92.9505 68.7583C91.8324 69.1954 91.1416 69.3676 89.8104 69.417L89.5404 69.427L89.384 69.2066L79.8418 55.755L79.8223 55.7276L79.8067 55.6978C79.3731 54.8702 79.1613 54.1597 79.1685 53.4007C79.1728 52.9591 79.2514 52.5175 79.3847 52.0462C77.7343 52.6927 76.1418 53.423 74.61 54.2304C75.1011 54.3078 75.5415 54.4174 75.9551 54.569C76.7911 54.8755 77.4829 55.3411 78.2459 55.9948L78.2891 56.0317L78.3228 56.0775L89.7054 71.4946L89.7738 71.5871L89.7948 71.7002L91.6269 81.5564C93.5235 80.6345 94.7317 80.3157 96.4103 80.1404L94.1219 70.3722L94.0943 70.2543L94.1237 70.1368L98.7371 51.6986L98.7431 51.6746L98.7515 51.6513C99.0548 50.805 99.4156 50.1775 99.9614 49.6436C100.185 49.4252 100.434 49.2273 100.714 49.0381C99.2042 48.8944 97.6821 48.8244 96.1532 48.8304C96.3669 49.1536 96.5425 49.4682 96.6782 49.798C96.9251 50.3978 97.0284 51.0183 97.0297 51.7963L97.0298 51.853L97.0172 51.9083L93.2559 68.4038Z" fill="#242422" stroke="black"/>
<path id="Ellipse 160" d="M118.215 79.5404L117.961 79.6151L117.756 79.447C116.829 78.6846 116.341 78.1658 115.648 77.0281L115.508 76.7974L115.624 76.5534L122.704 61.6582L122.719 61.6278L122.737 61.5996C123.248 60.8172 123.764 60.2854 124.43 59.9212C124.818 59.7093 125.242 59.5623 125.718 59.4486C124.348 58.3239 122.933 57.2906 121.481 56.348C121.653 56.8143 121.772 57.2522 121.842 57.6872C121.983 58.5664 121.914 59.3975 121.716 60.3825L121.705 60.4382L121.681 60.49L113.784 77.9509L113.737 78.0557L113.648 78.1292L105.941 84.5403C107.672 85.7454 108.54 86.6442 109.512 88.0235L116.92 81.2572L117.009 81.1756L117.126 81.1438L135.47 76.1679L135.494 76.1615L135.518 76.1574C136.405 76.0089 137.129 76.0175 137.861 76.2331C138.161 76.3213 138.455 76.4424 138.757 76.5946C138.145 75.2065 137.463 73.844 136.711 72.5126C136.534 72.8568 136.345 73.1637 136.123 73.4431C135.72 73.9515 135.229 74.3446 134.551 74.7255L134.502 74.7533L134.447 74.7693L118.215 79.5404Z" fill="#242422" stroke="black"/>
<circle id="Ellipse 161" cx="96.1904" cy="95.3299" r="15.5" transform="rotate(0.766998 96.1904 95.3299)" fill="#3B3B39" stroke="black"/>
<circle id="Ellipse 163" cx="96.1903" cy="95.3309" r="2.5" transform="rotate(0.766998 96.1903 95.3309)" fill="#D9D9D9" stroke="black"/>
</g>
</svg>
